<?xml version="1.0" encoding="UTF-8" standalone="no"?>
<!-- Generator: Adobe Illustrator 16.0.0, SVG Export Plug-In . SVG Version: 6.00 Build 0)  -->

<svg
   xmlns:svg="http://www.w3.org/2000/svg"
   xmlns="http://www.w3.org/2000/svg"
   xmlns:sodipodi="http://sodipodi.sourceforge.net/DTD/sodipodi-0.dtd"
   xmlns:inkscape="http://www.inkscape.org/namespaces/inkscape"
   version="1.1"
   id="svg63"
   x="0px"
   y="0px"
   width="74px"
   height="56px"
   viewBox="0 0 74 56"
   enable-background="new 0 0 74 56"
   xml:space="preserve"
   sodipodi:docname="analysis-ml-prediction.svg"
   inkscape:version="0.92.3 (2405546, 2018-03-11)"><metadata
   id="metadata69" /><defs
   id="defs67" /><sodipodi:namedview
   pagecolor="#ffffff"
   bordercolor="#666666"
   borderopacity="1"
   objecttolerance="10"
   gridtolerance="10"
   guidetolerance="10"
   inkscape:pageopacity="0"
   inkscape:pageshadow="2"
   inkscape:window-width="1920"
   inkscape:window-height="1001"
   id="namedview65"
   showgrid="false"
   inkscape:zoom="8.4285714"
   inkscape:cx="12.036813"
   inkscape:cy="29.182608"
   inkscape:window-x="-9"
   inkscape:window-y="-9"
   inkscape:window-maximized="1"
   inkscape:current-layer="svg63" />

<rect
   style="opacity:1;fill:#00a9e6;fill-opacity:1;fill-rule:nonzero;stroke:none;stroke-width:0.94974542;stroke-linecap:round;stroke-linejoin:round;stroke-miterlimit:10;stroke-dasharray:none;stroke-opacity:1;paint-order:normal"
   id="rect882"
   width="14.998536"
   height="13.89824"
   x="10.136595"
   y="31.084824"
   transform="matrix(0.91745765,-0.39783345,0.41294221,0.91075723,0,0)" /><rect
   style="opacity:1;fill:#00ba63;fill-opacity:1;fill-rule:nonzero;stroke:none;stroke-width:0.94974542;stroke-linecap:round;stroke-linejoin:round;stroke-miterlimit:10;stroke-dasharray:none;stroke-opacity:1;paint-order:normal"
   id="rect884"
   width="13.007182"
   height="13.725298"
   x="-4.8619418"
   y="32.474648"
   transform="matrix(0.91745765,-0.39783345,0.41294221,0.91075723,0,0)" /><rect
   style="opacity:1;fill:#fb8b00;fill-opacity:1;fill-rule:nonzero;stroke:none;stroke-width:0.94974542;stroke-linecap:round;stroke-linejoin:round;stroke-miterlimit:10;stroke-dasharray:none;stroke-opacity:1;paint-order:normal"
   id="rect886"
   width="27.689592"
   height="19.457537"
   x="27.442595"
   y="28.305176"
   transform="matrix(0.91745765,-0.39783345,0.41294221,0.91075723,0,0)" /><rect
   style="opacity:1;fill:#ffffff;fill-opacity:1;fill-rule:nonzero;stroke:none;stroke-width:0.94974542;stroke-linecap:round;stroke-linejoin:round;stroke-miterlimit:10;stroke-dasharray:none;stroke-opacity:1;paint-order:normal"
   id="rect896"
   width="3.8141942"
   height="16.024689"
   x="-10.477001"
   y="29.843712"
   transform="matrix(0.91745765,-0.39783345,0.41294221,0.91075723,0,0)" /><path
   d="M 62.180523,0.85513148 34.659491,12.788966 c -0.584623,0.253482 -0.801578,1.025712 -0.484588,1.724785 l 0.573917,1.265794 -14.819025,6.425913 c -0.584606,0.253478 -0.801568,1.025708 -0.484583,1.724787 L 6.9930249,29.329837 1.8953226,28.670953 C 1.0007137,28.555281 0.4501039,29.526381 0.8767685,30.467346 l 8.0348333,17.721096 c 0.881534,-0.645392 2.1281692,-1.821496 4.0113732,-2.355052 0.56965,-0.161398 0.968205,0.710819 1.722035,0.443728 2.760114,-0.977945 7.047799,-3.042861 12.18052,-5.207025 0.712344,-0.300363 -1.251364,-0.955108 1.356161,-2.063699 l 13.766928,-5.853017 c 0.48075,-0.204405 1.363568,2.918377 1.848292,2.714528 9.121131,-3.960539 19.987407,-8.5575 29.700696,-12.846123 L 63.812943,1.6619285 C 63.495997,0.96283548 62.765115,0.60161348 62.180523,0.85513148 Z M 35.896653,18.311131 41.63582,30.969056 27.875299,36.935975 22.136132,24.27805 Z M 3.9223943,31.597464 6.6132955,31.945232 11.643089,43.03861 10.099984,45.22235 Z M 14.617279,44.01118 8.9495274,31.510764 20.593045,26.461831 26.550817,38.836487 Z M 70.304688,21.566806 C 37.207275,35.893639 53.494123,28.856303 44.900659,32.582651 L 36.865825,14.861556 62.269854,3.8457095 Z"
   id="path2"
   inkscape:connector-curvature="0"
   sodipodi:nodetypes="ccccccccccssssscccccccccccccccccccccccc"
   style="fill:#000000;fill-opacity:0.59708737;stroke-width:0.15827526" /><rect
   style="opacity:1;fill:#000000;fill-opacity:0.59708737;fill-rule:nonzero;stroke:none;stroke-width:0.73539013;stroke-linecap:round;stroke-linejoin:round;stroke-miterlimit:10;stroke-dasharray:none;stroke-opacity:1;paint-order:normal"
   id="rect898"
   width="1.4877751"
   height="19.649582"
   x="41.549477"
   y="15.487343"
   transform="matrix(0.85523634,0.51823817,-0.31811555,0.94805195,0,0)"
   inkscape:transform-center-y="0.39488018"
   inkscape:transform-center-x="2.1132052e-006" /><rect
   style="opacity:1;fill:#000000;fill-opacity:0.59708737;fill-rule:nonzero;stroke:none;stroke-width:0.85777557;stroke-linecap:round;stroke-linejoin:round;stroke-miterlimit:10;stroke-dasharray:none;stroke-opacity:1;paint-order:normal"
   id="rect898-7"
   width="1.9883388"
   height="20.003775"
   x="20.620672"
   y="30.30201"
   transform="matrix(0.92175538,0.38777186,0.36434147,0.93126543,0,0)"
   inkscape:transform-center-y="0.39487986"
   inkscape:transform-center-x="-0.28698793" /></svg>