<?xml version="1.0" encoding="UTF-8" standalone="no"?>
<!-- Generator: Adobe Illustrator 16.0.0, SVG Export Plug-In . SVG Version: 6.00 Build 0)  -->

<svg
   version="1.1"
   id="Layer_1"
   x="0px"
   y="0px"
   width="74px"
   height="56px"
   viewBox="0 0 74 56"
   enable-background="new 0 0 74 56"
   xml:space="preserve"
   sodipodi:docname="supervised-learning.svg"
   inkscape:version="1.2.1 (9c6d41e, 2022-07-14)"
   xmlns:inkscape="http://www.inkscape.org/namespaces/inkscape"
   xmlns:sodipodi="http://sodipodi.sourceforge.net/DTD/sodipodi-0.dtd"
   xmlns="http://www.w3.org/2000/svg"
   xmlns:svg="http://www.w3.org/2000/svg"><defs
   id="defs83" /><sodipodi:namedview
   id="namedview81"
   pagecolor="#ffffff"
   bordercolor="#666666"
   borderopacity="1.0"
   inkscape:pageshadow="2"
   inkscape:pageopacity="0.0"
   inkscape:pagecheckerboard="0"
   showgrid="false"
   showguides="false"
   inkscape:zoom="7.7340948"
   inkscape:cx="8.9861841"
   inkscape:cy="35.686141"
   inkscape:window-width="1309"
   inkscape:window-height="456"
   inkscape:window-x="0"
   inkscape:window-y="38"
   inkscape:window-maximized="0"
   inkscape:current-layer="g78"
   inkscape:snap-grids="false"
   inkscape:snap-to-guides="false"
   inkscape:snap-others="false"
   inkscape:object-nodes="false"
   inkscape:snap-nodes="false"
   inkscape:snap-global="false"
   inkscape:showpageshadow="2"
   inkscape:deskcolor="#d1d1d1" />
<g
   id="g78">
<path
   d="m 13.470909,19.767151 c 0.05864,0.06097 0.05864,0.06097 0.118478,0.123171 0.07316,0.072 0.07316,0.072 0.147802,0.145458 0.05652,0.05729 0.11304,0.114583 0.171266,0.173611 0.113872,0.106675 0.228923,0.21198 0.344088,0.317255 0.126966,0.116105 0.253249,0.232914 0.37939,0.349916 0.160969,0.149138 0.322197,0.297981 0.483882,0.446344 0.05553,0.05112 0.05553,0.05112 0.112177,0.103272 0.07448,0.0679 0.149558,0.135128 0.225226,0.201691 0.194868,0.172941 0.365647,0.345158 0.525379,0.551369 0.204752,0.25001 0.400747,0.464377 0.707641,0.582712 0.34901,0.02677 0.684717,-0.04085 1.02737,-0.101979 0.689819,-0.122861 1.352234,-0.153665 2.050708,-0.151396 0.08161,-1.45e-4 0.08161,-1.45e-4 0.164889,-3.68e-4 0.72522,-3.03e-4 1.413194,0.06212 2.129593,0.183339 0.52491,0.09471 0.52491,0.09471 1.022605,-0.04663 0.175041,-0.175043 0.302344,-0.351396 0.436666,-0.558664 0.131969,-0.125809 0.131969,-0.125809 0.272146,-0.239303 0.302015,-0.259127 0.591914,-0.530215 0.882134,-0.802365 1.491893,-1.397331 1.491893,-1.397331 1.977245,-1.383829 0.326963,0.04395 0.61454,0.179049 0.913145,0.31401 0.10326,0.04568 0.10326,0.04568 0.208601,0.09229 1.483087,0.668727 3.070444,1.535106 4.230213,2.694876 0.07863,0.551692 -0.05581,1.093196 -0.183288,1.626724 -0.03797,0.166231 -0.07595,0.332461 -0.113932,0.498693 -0.06023,0.259027 -0.120782,0.517979 -0.181438,0.776906 -0.05871,0.251871 -0.116313,0.503978 -0.17385,0.756121 -0.01846,0.07704 -0.03689,0.154082 -0.05591,0.233457 -0.09296,0.408533 -0.145434,0.728882 -0.04234,1.13813 0.108376,0.164558 0.108376,0.164558 0.258071,0.300301 0.982954,1.035703 2.594782,3.324812 2.594782,4.804804 0.04454,0.0079 0.08909,0.01587 0.134978,0.02404 0.494696,0.0929 0.968348,0.224246 1.447758,0.376553 0.07636,0.02407 0.152734,0.04814 0.231414,0.07295 0.160124,0.05065 0.32018,0.101513 0.480169,0.152577 0.244509,0.07782 0.489407,0.154333 0.734346,0.230798 0.156188,0.04958 0.312351,0.09923 0.468486,0.148975 0.07289,0.02262 0.145779,0.04522 0.220877,0.06851 0.364942,0.117943 0.65983,0.223666 0.936628,0.502167 0.06687,0.169799 0.06687,0.169799 0.09384,0.351915 0.0096,0.05913 0.01935,0.118262 0.02933,0.179182 0.0088,0.07249 0.01781,0.144973 0.02698,0.219654 0.0061,0.04684 0.01228,0.09369 0.01861,0.141953 0.05389,0.43796 0.06852,0.8693 0.06907,1.310281 2.63e-4,0.07268 5.27e-4,0.14534 7.76e-4,0.220211 3.94e-4,0.15319 5.27e-4,0.306379 5.27e-4,0.45957 1.31e-4,0.230125 0.0016,0.460219 0.0029,0.690339 0.007,2.281371 0.007,2.281371 -0.287323,2.791579 -0.227368,0.210767 -0.460011,0.29529 -0.750385,0.384743 -0.05577,0.01828 -0.111542,0.03655 -0.169008,0.05537 -0.180156,0.0587 -0.360821,0.115625 -0.541566,0.172488 -0.123398,0.03975 -0.246763,0.07962 -0.370097,0.119578 -0.241438,0.078 -0.483088,0.155278 -0.724979,0.23186 -0.271197,0.08588 -0.541746,0.173572 -0.812007,0.26236 -0.125984,0.04102 -0.251987,0.08199 -0.378015,0.122875 -0.05498,0.01799 -0.109953,0.036 -0.16659,0.05452 -0.248496,0.07867 -0.432321,0.11439 -0.696773,0.11439 -0.0079,0.05033 -0.01587,0.100651 -0.02405,0.152497 -0.401424,1.753349 -1.562371,3.636021 -2.811503,4.910087 -0.237042,0.4944 0.03311,1.218106 0.154256,1.729365 0.03399,0.148094 0.06795,0.296191 0.10191,0.444293 0.05325,0.229854 0.106766,0.459642 0.160653,0.689348 0.05239,0.224127 0.103771,0.448469 0.155044,0.672852 0.02428,0.101502 0.02428,0.101502 0.04904,0.205057 0.251161,1.106634 0.251161,1.106634 -0.0042,1.521085 -0.05748,0.04588 -0.114969,0.09174 -0.174199,0.139005 -0.103068,0.08231 -0.103068,0.08231 -0.208216,0.166281 -0.08349,0.06083 -0.167396,0.121114 -0.251619,0.180941 -0.04832,0.03466 -0.09664,0.0693 -0.146411,0.10503 -1.048655,0.742981 -2.15976,1.364561 -3.316426,1.922003 -0.05777,0.02808 -0.115538,0.05616 -0.175059,0.0851 -0.885524,0.416925 -0.885524,0.416925 -1.354596,0.299658 -0.286897,-0.147027 -0.492691,-0.371891 -0.712626,-0.603533 -0.134232,-0.139455 -0.271055,-0.265731 -0.418192,-0.391211 -0.303385,-0.260897 -0.594974,-0.533436 -0.886825,-0.807058 -0.500469,-0.468592 -0.500469,-0.468592 -1.00413,-0.933747 -0.05689,-0.05236 -0.113808,-0.104712 -0.172436,-0.158654 -0.147661,-0.133088 -0.147661,-0.133088 -0.371856,-0.193261 -0.159345,0.02277 -0.318621,0.04625 -0.477248,0.07357 -0.81274,0.137437 -1.61882,0.178608 -2.441297,0.179806 -0.05465,2.62e-4 -0.109284,3.95e-4 -0.165584,6.47e-4 -0.72786,5.27e-4 -1.415111,-0.06337 -2.133589,-0.188313 -0.538433,-0.09544 -0.538433,-0.09544 -1.044013,0.06803 -0.193693,0.193694 -0.341808,0.390585 -0.495027,0.617025 -0.136953,0.130793 -0.136953,0.130793 -0.276839,0.243994 -0.300656,0.257356 -0.588761,0.527082 -0.877442,0.797672 -0.09834,0.0917 -0.196676,0.183389 -0.295019,0.275081 -0.167453,0.156315 -0.333722,0.313656 -0.498547,0.472737 -0.633494,0.598623 -0.633494,0.598623 -1.055156,0.612918 -0.340047,-0.09172 -0.655838,-0.230809 -0.975977,-0.375376 -0.04784,-0.02075 -0.09568,-0.04149 -0.14498,-0.06286 -1.432548,-0.621392 -2.7523788,-1.458143 -3.9841484,-2.41461 -0.061942,-0.04336 -0.1238736,-0.08671 -0.1876868,-0.131383 -0.2162156,-0.324321 -0.1384892,-0.756197 -0.079595,-1.12822 0.046185,-0.223549 0.097225,-0.445403 0.1502763,-0.667421 0.037971,-0.166231 0.075953,-0.332461 0.1139322,-0.498692 0.060229,-0.259028 0.1207788,-0.517977 0.1814371,-0.776907 0.058709,-0.251871 0.1163135,-0.503977 0.1738485,-0.756121 0.018458,-0.07704 0.036893,-0.154082 0.055907,-0.233458 0.092959,-0.408532 0.1454355,-0.728881 0.042316,-1.138128 C 8.1693973,47.297083 8.1693973,47.297083 8.019703,47.161343 6.8453278,45.923942 5.7782969,44.023281 5.4249195,42.356536 5.3803799,42.348595 5.3358289,42.340665 5.2899427,42.332496 4.7952774,42.239605 4.321625,42.108257 3.8422139,41.955949 3.7658477,41.931875 3.6894807,41.907813 3.6107998,41.883002 3.4507728,41.832344 3.290717,41.781485 3.1307279,41.730417 2.8862183,41.652591 2.6413199,41.576083 2.3963807,41.49962 2.2401942,41.450037 2.0840308,41.400384 1.9278954,41.350643 1.8549791,41.328039 1.7820901,41.305437 1.7069922,41.282139 1.341982,41.164175 1.0473587,41.05835 0.77036484,40.779969 0.70349871,40.61281 0.70349871,40.61281 0.67652082,40.432749 0.66200518,40.34536 0.66200518,40.34536 0.64719457,40.256205 0.57848832,39.678194 0.53328482,39.109779 0.53252881,38.527426 0.53230395,38.4582 0.532004,38.388962 0.53175872,38.317633 c -3.7506e-4,-0.145672 -5.2549e-4,-0.291342 -5.2549e-4,-0.437016 -1.4964e-4,-0.218582 -0.001543,-0.437137 -0.00295,-0.655715 -0.002042,-0.659391 0.007431,-1.313665 0.0787407,-1.969695 0.007817,-0.07686 0.007817,-0.07686 0.0157806,-0.155274 0.0390431,-0.310701 0.0909012,-0.538629 0.29771968,-0.776419 0.46586099,-0.275201 1.00832529,-0.417081 1.52202899,-0.575968 0.078496,-0.02457 0.1569917,-0.04915 0.2378663,-0.07446 0.1646069,-0.05141 0.3292778,-0.102636 0.4940063,-0.153663 0.2527104,-0.07835 0.5051671,-0.15748 0.7576055,-0.2367 0.1603993,-0.05 0.3208144,-0.09995 0.4812445,-0.149856 0.075545,-0.02369 0.1510851,-0.04739 0.2289171,-0.07179 0.1049165,-0.03237 0.1049165,-0.03237 0.2119648,-0.06538 0.092222,-0.02864 0.092222,-0.02864 0.1863016,-0.05788 0.1593442,-0.04074 0.1593442,-0.04074 0.3845698,-0.04074 0.016631,-0.07236 0.016631,-0.07236 0.033603,-0.146172 0.1466142,-0.588817 0.372035,-1.115853 0.6373871,-1.66032 0.04294,-0.08855 0.08588,-0.17709 0.1301154,-0.268316 0.543702,-1.097502 1.2136441,-2.097256 2.0226188,-3.01786 C 8.3750152,27.607418 8.3713247,27.525625 8.3402265,27.2968 8.3267945,27.19757 8.3267945,27.19757 8.3131015,27.096338 8.2559013,26.762877 8.1843271,26.434299 8.1063306,26.105133 8.0722963,25.956974 8.03833,25.808877 8.0043751,25.660774 7.9511227,25.43092 7.8976093,25.20113 7.8437216,24.971425 7.7913315,24.747298 7.739951,24.522958 7.6886782,24.298572 7.6724892,24.230911 7.6563002,24.163237 7.6396347,24.093518 7.5394377,23.652022 7.4751162,23.214982 7.5270945,22.761879 c 0.124636,-0.194726 0.124636,-0.194726 0.3049919,-0.337837 0.069294,-0.05526 0.1385845,-0.110521 0.2099749,-0.167453 0.077814,-0.05623 0.1556163,-0.11245 0.2357831,-0.170385 0.03982,-0.029 0.079652,-0.05799 0.1206778,-0.08787 1.0807944,-0.777497 2.2607068,-1.430144 3.4641568,-1.995465 0.06697,-0.03232 0.133951,-0.06464 0.202956,-0.09795 0.449843,-0.204588 0.935907,-0.377565 1.405296,-0.137806 z m 2.154302,13.522311 c -1.098539,1.062622 -1.785837,2.517549 -1.813825,4.052883 -0.0094,1.530296 0.356726,2.929482 1.373345,4.113291 0.03726,0.04791 0.07452,0.09581 0.112903,0.145168 0.841016,1.039617 2.239605,1.785573 3.565773,1.956937 1.829549,0.148008 3.459816,-0.263444 4.882518,-1.450181 1.044598,-0.945505 1.862493,-2.337527 1.962602,-3.769994 0.03873,-1.69258 -0.228617,-3.216737 -1.36464,-4.539587 -0.03726,-0.0479 -0.07452,-0.09581 -0.112903,-0.145164 -0.973323,-1.20317 -2.46418,-1.832222 -3.972068,-2.003529 -1.714571,-0.150795 -3.373957,0.492399 -4.633705,1.640176 z"
   fill="#9d9d9d"
   id="path132"
   style="stroke-width:0.0750752" /><path
   d="m 51.657752,0.59902713 c 0.063,-8.544e-5 0.126025,-1.6967e-4 0.190947,-2.5751e-4 6.519486,0.005896 12.8437,2.95566378 17.429125,7.53428518 0.124048,0.1270943 0.247856,0.254422 0.371397,0.3820073 0.225126,0.2266004 0.451829,0.4514188 0.68045,0.6744803 0.504557,0.4944778 0.981713,0.9935386 1.420588,1.5485876 0.177153,0.221441 0.36013,0.435505 0.546338,0.649258 1.2401,1.434058 1.2401,1.434058 1.235035,2.521864 -0.134972,0.635375 -0.59524,1.12962 -1.001442,1.619881 -0.04786,0.05822 -0.0957,0.116444 -0.144994,0.176435 -0.147366,0.178693 -0.295484,0.356728 -0.443934,0.534524 -0.04557,0.05467 -0.09113,0.109344 -0.138069,0.165677 -0.473597,0.566228 -0.954778,1.112149 -1.484797,1.626971 -0.136535,0.136534 -0.257824,0.273908 -0.377365,0.425115 -0.219602,0.259017 -0.455999,0.467898 -0.713943,0.687413 -0.159396,0.139743 -0.306336,0.28478 -0.453301,0.437383 -0.386878,0.392096 -0.817658,0.727546 -1.246828,1.071745 -0.09362,0.07769 -0.187127,0.155506 -0.280536,0.233447 -3.735454,3.090657 -8.321981,5.064864 -13.132153,5.62399 -0.07458,0.0088 -0.149167,0.01751 -0.226009,0.02653 -0.689106,0.07196 -1.379145,0.07894 -2.071339,0.07959 -0.063,8.4e-5 -0.126025,1.71e-4 -0.190947,1.72e-4 -6.519486,-0.0059 -12.8437,-2.955668 -17.429125,-7.534289 -0.124048,-0.127095 -0.247855,-0.254421 -0.371397,-0.382008 -0.225124,-0.226601 -0.451828,-0.451419 -0.680448,-0.67448 -0.50456,-0.494478 -0.981713,-0.99354 -1.420589,-1.548588 -0.177153,-0.22144 -0.360131,-0.435506 -0.546338,-0.649258 -1.240101,-1.434058 -1.240101,-1.434058 -1.235035,-2.521865 0.134972,-0.635376 0.59524,-1.129618 1.001442,-1.619882 0.04786,-0.05822 0.0957,-0.116444 0.144993,-0.176434 0.147366,-0.178693 0.295486,-0.356728 0.443934,-0.534522 0.04556,-0.05468 0.09113,-0.109345 0.138071,-0.165678 0.473597,-0.566228 0.954777,-1.1121497 1.484795,-1.6269706 0.136536,-0.1365355 0.257825,-0.2739084 0.377365,-0.4251146 0.219602,-0.2590174 0.456,-0.4678992 0.713942,-0.6874134 0.159398,-0.1397422 0.306339,-0.2847814 0.453302,-0.4373846 0.386878,-0.3920948 0.817658,-0.727545 1.246827,-1.0717421 0.09362,-0.077685 0.187128,-0.1555091 0.280538,-0.2334484 3.735454,-3.0906572 8.32198,-5.0648637 13.132153,-5.62399213 0.111872,-0.0131281 0.111872,-0.0131281 0.226007,-0.0265329 0.689107,-0.0719577 1.379148,-0.0789368 2.07134,-0.0795866 z M 44.918495,7.5378675 c -1.661772,1.9652093 -2.447914,4.3522995 -2.264435,6.9195235 0.164305,1.84313 0.894792,3.618027 2.122261,5.008537 0.0603,0.07145 0.12059,0.142913 0.182714,0.216538 1.477524,1.711226 3.677435,2.81023 5.929398,3.009299 2.530911,0.15628 4.719491,-0.540035 6.706345,-2.122262 0.06215,-0.04892 0.124312,-0.09783 0.188351,-0.148227 1.722136,-1.424864 2.788475,-3.684893 3.037485,-5.878994 0.139364,-2.492996 -0.44024,-4.8857982 -2.12226,-6.7912358 C 58.638056,7.679594 58.577762,7.6081321 58.515641,7.5345102 57.038116,5.8232824 54.838204,4.7242784 52.586241,4.5252096 49.692223,4.3465043 46.88076,5.3333928 44.918495,7.5378675 Z"
   fill="#000000"
   id="path539"
   style="stroke-width:0.0848904" /><path
   d="m 51.72142,8.6477024 c 0.08161,5.836e-4 0.163201,0.00118 0.247272,0.0018 0.954276,0.021443 1.768741,0.2711347 2.570029,0.7993918 0.0626,0.040708 0.125189,0.081416 0.189679,0.1233568 1.016298,0.721922 1.713434,1.878802 1.932584,3.102481 0.145903,1.51121 -0.0674,2.848081 -1.018687,4.07474 -0.821828,0.987806 -1.963077,1.680668 -3.254975,1.801269 -1.485889,0.09299 -2.788621,-0.180953 -3.956069,-1.1626 -1.032087,-0.975844 -1.606672,-2.138449 -1.657498,-3.559141 -0.01711,-1.504354 0.424004,-2.660349 1.458867,-3.764318 0.952345,-0.9393217 2.154952,-1.4316348 3.488798,-1.4169413 z"
   fill="#000000"
   id="path541"
   style="stroke-width:0.0848904" /></g>
</svg>
