<?xml version="1.0" encoding="UTF-8" standalone="no"?>
<!-- Generator: Adobe Illustrator 16.0.0, SVG Export Plug-In . SVG Version: 6.00 Build 0)  -->

<svg
   version="1.1"
   id="Layer_1"
   x="0px"
   y="0px"
   width="74px"
   height="56px"
   viewBox="0 0 74 56"
   enable-background="new 0 0 74 56"
   xml:space="preserve"
   sodipodi:docname="unsupervised-learning.svg"
   inkscape:version="1.2.1 (9c6d41e, 2022-07-14)"
   xmlns:inkscape="http://www.inkscape.org/namespaces/inkscape"
   xmlns:sodipodi="http://sodipodi.sourceforge.net/DTD/sodipodi-0.dtd"
   xmlns="http://www.w3.org/2000/svg"
   xmlns:svg="http://www.w3.org/2000/svg"><defs
   id="defs83" /><sodipodi:namedview
   id="namedview81"
   pagecolor="#ffffff"
   bordercolor="#666666"
   borderopacity="1.0"
   inkscape:pageshadow="2"
   inkscape:pageopacity="0.0"
   inkscape:pagecheckerboard="0"
   showgrid="false"
   showguides="false"
   inkscape:zoom="5.008573"
   inkscape:cx="2.4957208"
   inkscape:cy="32.5442"
   inkscape:window-width="1309"
   inkscape:window-height="456"
   inkscape:window-x="0"
   inkscape:window-y="38"
   inkscape:window-maximized="0"
   inkscape:current-layer="g78"
   inkscape:snap-grids="false"
   inkscape:snap-to-guides="false"
   inkscape:snap-others="false"
   inkscape:object-nodes="false"
   inkscape:snap-nodes="false"
   inkscape:snap-global="false"
   inkscape:showpageshadow="2"
   inkscape:deskcolor="#d1d1d1" />
<g
   id="g78">
<path
   d="m 27.123226,0.33046397 c 0.09063,0.094218 0.09063,0.094218 0.183088,0.19034001 0.11306,0.11126956 0.11306,0.11126956 0.228404,0.22477955 0.08734,0.0885374 0.174677,0.17706982 0.264661,0.26828727 0.175969,0.1648479 0.353761,0.3275783 0.53173,0.4902631 0.196204,0.1794203 0.391354,0.3599298 0.586283,0.5407356 0.24875,0.2304689 0.4979,0.46048 0.747757,0.6897509 0.08581,0.078993 0.08581,0.078993 0.173343,0.1595789 0.115088,0.1049223 0.231117,0.208817 0.348048,0.311679 0.301137,0.2672519 0.565048,0.5333843 0.811885,0.8520468 0.31641,0.3863495 0.619287,0.7176157 1.09354,0.9004827 0.539336,0.041376 1.058114,-0.063125 1.587625,-0.1575962 1.066,-0.1898621 2.089649,-0.2374641 3.169023,-0.2339578 0.126129,-2.236e-4 0.126129,-2.236e-4 0.254806,-5.691e-4 1.120706,-4.685e-4 2.183852,0.096009 3.290925,0.2833199 0.811161,0.1463522 0.811161,0.1463522 1.580263,-0.07206 C 42.245103,4.5070463 42.441828,4.2345218 42.6494,3.9142233 42.853337,3.7198065 42.853337,3.7198065 43.069957,3.5444231 43.53667,3.143985 43.984659,2.725065 44.433144,2.3045044 c 2.305468,-2.15933755 2.305468,-2.15933755 3.055498,-2.13847492 0.505264,0.0679258 0.949666,0.27669009 1.41111,0.48524951 0.159567,0.0705956 0.159567,0.0705956 0.322357,0.14261269 2.29186,1.03340412 4.74485,2.37224642 6.537077,4.16447392 0.121508,0.8525469 -0.08624,1.68935 -0.283241,2.5138273 -0.05868,0.2568807 -0.117377,0.5137615 -0.176063,0.7706444 -0.09308,0.4002825 -0.186647,0.8004478 -0.280381,1.2005773 -0.09072,0.3892243 -0.179742,0.7788124 -0.268655,1.1684554 -0.02852,0.119054 -0.05702,0.238108 -0.0864,0.36077 -0.143646,0.631319 -0.224744,1.126362 -0.06542,1.758785 0.16747,0.254297 0.16747,0.254297 0.398805,0.464064 1.518989,1.600505 4.009796,5.137933 4.009796,7.42501 0.06883,0.01226 0.137666,0.02453 0.208584,0.03714 0.764469,0.143568 1.496419,0.346536 2.237266,0.581901 0.118012,0.0372 0.236024,0.07439 0.357611,0.112722 0.247444,0.07827 0.494782,0.156863 0.742019,0.235781 0.377847,0.120266 0.756296,0.238496 1.134806,0.356659 0.241362,0.07662 0.482686,0.153349 0.723967,0.230217 0.11264,0.03495 0.225277,0.06988 0.341328,0.105881 0.563956,0.182261 1.019655,0.345638 1.447399,0.776015 0.103329,0.262394 0.103329,0.262394 0.145021,0.543824 0.01494,0.09137 0.02991,0.182753 0.04532,0.276896 0.01376,0.112019 0.02752,0.22403 0.04169,0.339438 0.0094,0.07239 0.01897,0.144782 0.02876,0.219364 0.08328,0.676793 0.105891,1.343355 0.106738,2.024816 4.07e-4,0.1123 8.15e-4,0.224599 0.0012,0.3403 6.1e-4,0.236728 8.14e-4,0.473457 8.14e-4,0.710187 2.03e-4,0.355619 0.0024,0.711191 0.0046,1.066802 0.01089,3.525471 0.01089,3.525471 -0.444009,4.313912 -0.351359,0.325704 -0.710869,0.45632 -1.159593,0.594554 -0.08619,0.02824 -0.172375,0.05648 -0.261174,0.08558 -0.2784,0.09071 -0.557586,0.178679 -0.836897,0.266549 -0.190691,0.06144 -0.381331,0.123035 -0.571922,0.184788 -0.373103,0.120533 -0.746531,0.239957 -1.120333,0.358301 -0.419088,0.132711 -0.837176,0.268226 -1.254819,0.405431 -0.194687,0.0634 -0.389403,0.1267 -0.584158,0.189883 -0.08496,0.02781 -0.169909,0.05562 -0.257437,0.08426 -0.384008,0.121566 -0.668078,0.176772 -1.076744,0.176772 -0.01226,0.07776 -0.02453,0.155534 -0.03716,0.235657 -0.620333,2.709504 -2.414378,5.618854 -4.344701,7.587706 -0.366307,0.764011 0.05117,1.882376 0.238376,2.672441 0.05253,0.228853 0.105012,0.457712 0.157482,0.686578 0.0823,0.355201 0.164984,0.7103 0.248262,1.065272 0.08096,0.346351 0.16036,0.693032 0.239593,1.039779 0.03752,0.156855 0.03752,0.156855 0.07579,0.316879 0.388128,1.710116 0.388128,1.710116 -0.0064,2.35058 -0.08884,0.07089 -0.177666,0.141774 -0.269195,0.21481 -0.159272,0.127193 -0.159272,0.127193 -0.321761,0.256957 -0.12902,0.09401 -0.258684,0.187162 -0.388835,0.279614 -0.07466,0.05356 -0.149326,0.107108 -0.226254,0.1623 -1.620518,1.148151 -3.337543,2.108697 -5.124973,2.970128 -0.08928,0.0434 -0.178545,0.08679 -0.270525,0.131511 -1.368426,0.644288 -1.368426,0.644288 -2.093298,0.46307 -0.44335,-0.227206 -0.761371,-0.574694 -1.101242,-0.932658 -0.207434,-0.215503 -0.41887,-0.410642 -0.646246,-0.60455 -0.468829,-0.403173 -0.919431,-0.824335 -1.370437,-1.24717 -0.77339,-0.724132 -0.77339,-0.724132 -1.551712,-1.442948 -0.08792,-0.0809 -0.175872,-0.161814 -0.266471,-0.245173 -0.228185,-0.205666 -0.228185,-0.205666 -0.57464,-0.298651 -0.246241,0.03518 -0.492376,0.07147 -0.737507,0.113694 -1.255951,0.212385 -2.50161,0.276008 -3.77261,0.277859 -0.08444,4.06e-4 -0.168881,6.1e-4 -0.255882,10e-4 -1.124785,8.14e-4 -2.186814,-0.09794 -3.297099,-0.291006 -0.832057,-0.147502 -0.832057,-0.147502 -1.613346,0.105131 -0.299318,0.29932 -0.528206,0.603582 -0.764979,0.953506 -0.211638,0.20212 -0.211638,0.20212 -0.427808,0.377052 -0.464612,0.3977 -0.90983,0.814516 -1.355937,1.232667 -0.151964,0.1417 -0.30393,0.283397 -0.455903,0.42509 -0.25877,0.24156 -0.51571,0.484702 -0.770419,0.730536 -0.978958,0.92507 -0.978958,0.92507 -1.630565,0.94716 -0.525485,-0.141736 -1.013486,-0.356676 -1.508206,-0.58008 -0.07393,-0.03206 -0.147869,-0.06412 -0.224043,-0.09714 -2.213758,-0.960256 -4.253334,-2.253314 -6.156825,-3.731371 -0.09572,-0.067 -0.191426,-0.133996 -0.290039,-0.203029 -0.334124,-0.501184 -0.214011,-1.168576 -0.123009,-1.743473 0.07137,-0.345458 0.150247,-0.688294 0.232227,-1.031387 0.05868,-0.25688 0.117375,-0.513761 0.176063,-0.770642 0.09308,-0.400285 0.186644,-0.800448 0.280381,-1.200579 0.09072,-0.389224 0.179742,-0.778812 0.268653,-1.168456 0.02852,-0.119055 0.05702,-0.238109 0.0864,-0.360771 0.143646,-0.631318 0.224745,-1.126361 0.0654,-1.758783 -0.167468,-0.254298 -0.167468,-0.254298 -0.398804,-0.464063 -1.814798,-1.912193 -3.463713,-4.84934 -4.009798,-7.425012 -0.06883,-0.01226 -0.137666,-0.02453 -0.208584,-0.03715 -0.76442,-0.143556 -1.496371,-0.346524 -2.237219,-0.58189 -0.11801,-0.0372 -0.236023,-0.07439 -0.357611,-0.112722 -0.247442,-0.07827 -0.494781,-0.156863 -0.742017,-0.23578 C 10.766383,34.150698 10.387934,34.032469 10.009422,33.914306 9.7680623,33.837686 9.5267383,33.760955 9.2854573,33.684089 9.1727776,33.649158 9.0601401,33.61423 8.9440891,33.578227 8.3800277,33.395933 7.9247374,33.232399 7.4966904,32.802209 7.393361,32.543893 7.393361,32.543893 7.3516709,32.265638 7.3292396,32.130593 7.3292396,32.130593 7.3063523,31.99282 7.2001782,31.099602 7.1303241,30.221215 7.1291559,29.321285 c -3.475e-4,-0.106978 -8.111e-4,-0.213973 -0.00119,-0.324199 -5.797e-4,-0.225111 -8.121e-4,-0.45022 -8.121e-4,-0.675334 -2.312e-4,-0.337782 -0.00239,-0.675521 -0.00456,-1.013295 -0.00315,-1.018979 0.011476,-2.030048 0.1216806,-3.04383 0.012073,-0.118775 0.012073,-0.118775 0.024386,-0.239949 0.060334,-0.480137 0.1404714,-0.832362 0.4600751,-1.199825 0.7199091,-0.425276 1.5581958,-0.644528 2.3520375,-0.89006 0.121302,-0.03797 0.242604,-0.07594 0.367582,-0.115064 0.254372,-0.07946 0.508843,-0.158607 0.763403,-0.237461 0.390521,-0.121076 0.78065,-0.243358 1.170751,-0.36578 0.24787,-0.07726 0.495764,-0.154459 0.74368,-0.231577 0.116739,-0.03661 0.233477,-0.07322 0.353753,-0.110941 0.16214,-0.05001 0.16214,-0.05001 0.327556,-0.101039 0.14251,-0.04426 0.14251,-0.04426 0.287898,-0.08944 0.24624,-0.06295 0.24624,-0.06295 0.594288,-0.06295 0.0257,-0.111808 0.0257,-0.111808 0.05192,-0.225884 0.226567,-0.909917 0.574918,-1.724361 0.984974,-2.565744 0.06636,-0.13683 0.132708,-0.273661 0.201072,-0.414636 0.840198,-1.696002 1.87548,-3.240952 3.125613,-4.66359 0.195117,-0.304417 0.189413,-0.430813 0.141353,-0.784424 -0.02075,-0.153342 -0.02075,-0.153342 -0.04192,-0.309781 -0.0884,-0.515314 -0.198998,-1.023075 -0.319529,-1.531743 C 18.78058,9.8957828 18.728085,9.6669238 18.675621,9.4380572 18.593322,9.0828566 18.510637,8.7277559 18.427358,8.3727844 18.346394,8.0264357 18.267,7.6797538 18.187765,7.3330045 18.16275,7.2284373 18.137734,7.1238669 18.11197,7.0161282 17.957124,6.3338714 17.857733,5.6584994 17.938062,4.9583066 c 0.192604,-0.3009163 0.192604,-0.3009163 0.471314,-0.5220711 0.107075,-0.085388 0.214158,-0.170788 0.32448,-0.2587707 0.120241,-0.086886 0.240479,-0.1737789 0.364364,-0.2633006 0.06154,-0.044807 0.12308,-0.089616 0.186487,-0.1357861 1.670183,-1.2014903 3.493538,-2.2100453 5.353266,-3.08365283 0.103493,-0.0499493 0.206998,-0.0998975 0.313634,-0.15136339 0.695155,-0.31615627 1.446284,-0.58346332 2.171646,-0.21295578 z M 30.452335,21.226902 c -1.697605,1.642101 -2.759708,3.890444 -2.802959,6.263041 -0.0146,2.364814 0.551258,4.52702 2.122272,6.356395 0.05758,0.07403 0.115158,0.148059 0.174477,0.224331 1.299647,1.606552 3.460929,2.7593 5.510298,3.024115 2.827257,0.228722 5.346559,-0.407108 7.545103,-2.241009 1.614249,-1.461117 2.878167,-3.612251 3.032868,-5.825885 0.05985,-2.615597 -0.353288,-4.970922 -2.108819,-7.015162 -0.05758,-0.07402 -0.115158,-0.148055 -0.174478,-0.224327 -1.504106,-1.859294 -3.807973,-2.831387 -6.138158,-3.096114 -2.649578,-0.233027 -5.213877,0.760919 -7.160604,2.534615 z"
   fill="#9d9d9d"
   id="path132"
   style="stroke-width:0.116016" /><path
   d="m 27.123226,0.33046397 c 0.09063,0.094218 0.09063,0.094218 0.183088,0.19034001 0.11306,0.11126956 0.11306,0.11126956 0.228404,0.22477955 0.08734,0.0885374 0.174677,0.17706982 0.264661,0.26828727 0.175969,0.1648479 0.353761,0.3275783 0.53173,0.4902631 0.196204,0.1794203 0.391354,0.3599298 0.586283,0.5407356 0.24875,0.2304689 0.4979,0.46048 0.747757,0.6897509 0.08581,0.078993 0.08581,0.078993 0.173343,0.1595789 0.115088,0.1049223 0.231117,0.208817 0.348048,0.311679 0.301137,0.2672519 0.565048,0.5333843 0.811885,0.8520468 0.31641,0.3863495 0.619287,0.7176157 1.09354,0.9004827 0.539336,0.041376 1.058114,-0.063125 1.587625,-0.1575962 1.066,-0.1898621 2.089649,-0.2374641 3.169023,-0.2339578 0.126129,-2.236e-4 0.126129,-2.236e-4 0.254806,-5.691e-4 1.120706,-4.685e-4 2.183852,0.096009 3.290925,0.2833199 0.811161,0.1463522 0.811161,0.1463522 1.580263,-0.07206 C 42.245103,4.5070463 42.441828,4.2345218 42.6494,3.9142233 42.853337,3.7198065 42.853337,3.7198065 43.069957,3.5444231 43.53667,3.143985 43.984659,2.725065 44.433144,2.3045044 c 2.305468,-2.15933755 2.305468,-2.15933755 3.055498,-2.13847492 0.505264,0.0679258 0.949666,0.27669009 1.41111,0.48524951 0.159567,0.0705956 0.159567,0.0705956 0.322357,0.14261269 2.29186,1.03340412 4.74485,2.37224642 6.537077,4.16447392 0.121508,0.8525469 -0.08624,1.68935 -0.283241,2.5138273 -0.05868,0.2568807 -0.117377,0.5137615 -0.176063,0.7706444 -0.09308,0.4002825 -0.186647,0.8004478 -0.280381,1.2005773 -0.09072,0.3892243 -0.179742,0.7788124 -0.268655,1.1684554 -0.02852,0.119054 -0.05702,0.238108 -0.0864,0.36077 -0.143646,0.631319 -0.224744,1.126362 -0.06542,1.758785 0.16747,0.254297 0.16747,0.254297 0.398805,0.464064 1.518989,1.600505 4.009796,5.137933 4.009796,7.42501 0.06883,0.01226 0.137666,0.02453 0.208584,0.03714 0.764469,0.143568 1.496419,0.346536 2.237266,0.581901 0.118012,0.0372 0.236024,0.07439 0.357611,0.112722 0.247444,0.07827 0.494782,0.156863 0.742019,0.235781 0.377847,0.120266 0.756296,0.238496 1.134806,0.356659 0.241362,0.07662 0.482686,0.153349 0.723967,0.230217 0.11264,0.03495 0.225277,0.06988 0.341328,0.105881 0.563956,0.182261 1.019655,0.345638 1.447399,0.776015 0.103329,0.262394 0.103329,0.262394 0.145021,0.543824 0.01494,0.09137 0.02991,0.182753 0.04532,0.276896 0.01376,0.112019 0.02752,0.22403 0.04169,0.339438 0.0094,0.07239 0.01897,0.144782 0.02876,0.219364 0.08328,0.676793 0.105891,1.343355 0.106738,2.024816 4.07e-4,0.1123 8.15e-4,0.224599 0.0012,0.3403 6.1e-4,0.236728 8.14e-4,0.473457 8.14e-4,0.710187 2.03e-4,0.355619 0.0024,0.711191 0.0046,1.066802 0.01089,3.525471 0.01089,3.525471 -0.444009,4.313912 -0.351359,0.325704 -0.710869,0.45632 -1.159593,0.594554 -0.08619,0.02824 -0.172375,0.05648 -0.261174,0.08558 -0.2784,0.09071 -0.557586,0.178679 -0.836897,0.266549 -0.190691,0.06144 -0.381331,0.123035 -0.571922,0.184788 -0.373103,0.120533 -0.746531,0.239957 -1.120333,0.358301 -0.419088,0.132711 -0.837176,0.268226 -1.254819,0.405431 -0.194687,0.0634 -0.389403,0.1267 -0.584158,0.189883 -0.08496,0.02781 -0.169909,0.05562 -0.257437,0.08426 -0.384008,0.121566 -0.668078,0.176772 -1.076744,0.176772 -0.01226,0.07776 -0.02453,0.155534 -0.03716,0.235657 -0.620333,2.709504 -2.414378,5.618854 -4.344701,7.587706 -0.366307,0.764011 0.05117,1.882376 0.238376,2.672441 0.05253,0.228853 0.105012,0.457712 0.157482,0.686578 0.0823,0.355201 0.164984,0.7103 0.248262,1.065272 0.08096,0.346351 0.16036,0.693032 0.239593,1.039779 0.03752,0.156855 0.03752,0.156855 0.07579,0.316879 0.388128,1.710116 0.388128,1.710116 -0.0064,2.35058 -0.08884,0.07089 -0.177666,0.141774 -0.269195,0.21481 -0.159272,0.127193 -0.159272,0.127193 -0.321761,0.256957 -0.12902,0.09401 -0.258684,0.187162 -0.388835,0.279614 -0.07466,0.05356 -0.149326,0.107108 -0.226254,0.1623 -1.620518,1.148151 -3.337543,2.108697 -5.124973,2.970128 -0.08928,0.0434 -0.178545,0.08679 -0.270525,0.131511 -1.368426,0.644288 -1.368426,0.644288 -2.093298,0.46307 -0.44335,-0.227206 -0.761371,-0.574694 -1.101242,-0.932658 -0.207434,-0.215503 -0.41887,-0.410642 -0.646246,-0.60455 -0.468829,-0.403173 -0.919431,-0.824335 -1.370437,-1.24717 -0.77339,-0.724132 -0.77339,-0.724132 -1.551712,-1.442948 -0.08792,-0.0809 -0.175872,-0.161814 -0.266471,-0.245173 -0.228185,-0.205666 -0.228185,-0.205666 -0.57464,-0.298651 -0.246241,0.03518 -0.492376,0.07147 -0.737507,0.113694 -1.255951,0.212385 -2.50161,0.276008 -3.77261,0.277859 -0.08444,4.06e-4 -0.168881,6.1e-4 -0.255882,10e-4 -1.124785,8.14e-4 -2.186814,-0.09794 -3.297099,-0.291006 -0.832057,-0.147502 -0.832057,-0.147502 -1.613346,0.105131 -0.299318,0.29932 -0.528206,0.603582 -0.764979,0.953506 -0.211638,0.20212 -0.211638,0.20212 -0.427808,0.377052 -0.464612,0.3977 -0.90983,0.814516 -1.355937,1.232667 -0.151964,0.1417 -0.30393,0.283397 -0.455903,0.42509 -0.25877,0.24156 -0.51571,0.484702 -0.770419,0.730536 -0.978958,0.92507 -0.978958,0.92507 -1.630565,0.94716 -0.525485,-0.141736 -1.013486,-0.356676 -1.508206,-0.58008 -0.07393,-0.03206 -0.147869,-0.06412 -0.224043,-0.09714 -2.213758,-0.960256 -4.253334,-2.253314 -6.156825,-3.731371 -0.09572,-0.067 -0.191426,-0.133996 -0.290039,-0.203029 -0.334124,-0.501184 -0.214011,-1.168576 -0.123009,-1.743473 0.07137,-0.345458 0.150247,-0.688294 0.232227,-1.031387 0.05868,-0.25688 0.117375,-0.513761 0.176063,-0.770642 0.09308,-0.400285 0.186644,-0.800448 0.280381,-1.200579 0.09072,-0.389224 0.179742,-0.778812 0.268653,-1.168456 0.02852,-0.119055 0.05702,-0.238109 0.0864,-0.360771 0.143646,-0.631318 0.224745,-1.126361 0.0654,-1.758783 -0.167468,-0.254298 -0.167468,-0.254298 -0.398804,-0.464063 -1.814798,-1.912193 -3.463713,-4.84934 -4.009798,-7.425012 -0.06883,-0.01226 -0.137666,-0.02453 -0.208584,-0.03715 -0.76442,-0.143556 -1.496371,-0.346524 -2.237219,-0.58189 -0.11801,-0.0372 -0.236023,-0.07439 -0.357611,-0.112722 -0.247442,-0.07827 -0.494781,-0.156863 -0.742017,-0.23578 C 10.766383,34.150698 10.387934,34.032469 10.009422,33.914306 9.7680623,33.837686 9.5267383,33.760955 9.2854573,33.684089 9.1727776,33.649158 9.0601401,33.61423 8.9440891,33.578227 8.3800277,33.395933 7.9247374,33.232399 7.4966904,32.802209 7.393361,32.543893 7.393361,32.543893 7.3516709,32.265638 7.3292396,32.130593 7.3292396,32.130593 7.3063523,31.99282 7.2001782,31.099602 7.1303241,30.221215 7.1291559,29.321285 c -3.475e-4,-0.106978 -8.111e-4,-0.213973 -0.00119,-0.324199 -5.797e-4,-0.225111 -8.121e-4,-0.45022 -8.121e-4,-0.675334 -2.312e-4,-0.337782 -0.00239,-0.675521 -0.00456,-1.013295 -0.00315,-1.018979 0.011476,-2.030048 0.1216806,-3.04383 0.012073,-0.118775 0.012073,-0.118775 0.024386,-0.239949 0.060334,-0.480137 0.1404714,-0.832362 0.4600751,-1.199825 0.7199091,-0.425276 1.5581958,-0.644528 2.3520375,-0.89006 0.121302,-0.03797 0.242604,-0.07594 0.367582,-0.115064 0.254372,-0.07946 0.508843,-0.158607 0.763403,-0.237461 0.390521,-0.121076 0.78065,-0.243358 1.170751,-0.36578 0.24787,-0.07726 0.495764,-0.154459 0.74368,-0.231577 0.116739,-0.03661 0.233477,-0.07322 0.353753,-0.110941 0.16214,-0.05001 0.16214,-0.05001 0.327556,-0.101039 0.14251,-0.04426 0.14251,-0.04426 0.287898,-0.08944 0.24624,-0.06295 0.24624,-0.06295 0.594288,-0.06295 0.0257,-0.111808 0.0257,-0.111808 0.05192,-0.225884 0.226567,-0.909917 0.574918,-1.724361 0.984974,-2.565744 0.06636,-0.13683 0.132708,-0.273661 0.201072,-0.414636 0.840198,-1.696002 1.87548,-3.240952 3.125613,-4.66359 0.195117,-0.304417 0.189413,-0.430813 0.141353,-0.784424 -0.02075,-0.153342 -0.02075,-0.153342 -0.04192,-0.309781 -0.0884,-0.515314 -0.198998,-1.023075 -0.319529,-1.531743 C 18.78058,9.8957828 18.728085,9.6669238 18.675621,9.4380572 18.593322,9.0828566 18.510637,8.7277559 18.427358,8.3727844 18.346394,8.0264357 18.267,7.6797538 18.187765,7.3330045 18.16275,7.2284373 18.137734,7.1238669 18.11197,7.0161282 17.957124,6.3338714 17.857733,5.6584994 17.938062,4.9583066 c 0.192604,-0.3009163 0.192604,-0.3009163 0.471314,-0.5220711 0.107075,-0.085388 0.214158,-0.170788 0.32448,-0.2587707 0.120241,-0.086886 0.240479,-0.1737789 0.364364,-0.2633006 0.06154,-0.044807 0.12308,-0.089616 0.186487,-0.1357861 1.670183,-1.2014903 3.493538,-2.2100453 5.353266,-3.08365283 0.103493,-0.0499493 0.206998,-0.0998975 0.313634,-0.15136339 0.695155,-0.31615627 1.446284,-0.58346332 2.171646,-0.21295578 z M 24.848227,2.7178532 c -0.14413,0.068746 -0.14413,0.068746 -0.291172,0.1388721 -1.637721,0.8024773 -3.205316,1.7964284 -4.64675,2.9137925 0.07806,1.0473182 0.33371,2.0549287 0.572828,3.0744183 0.04228,0.1820171 0.0845,0.3640472 0.126665,0.5460903 0.08008,0.3455474 0.160346,0.6910526 0.240757,1.0365226 0.115263,0.496661 0.228914,0.993301 0.335923,1.491806 0.03544,0.160394 0.03544,0.160394 0.0716,0.324028 0.05989,0.556214 -0.0055,0.858976 -0.333544,1.321039 -0.237202,0.276376 -0.485481,0.542087 -0.732803,0.809393 -1.693047,1.848524 -2.875376,4.289694 -3.698343,6.633887 -0.03414,0.09627 -0.06826,0.192529 -0.103438,0.291711 -0.02894,0.08474 -0.05788,0.169479 -0.0877,0.256789 -0.172799,0.371366 -0.365566,0.536589 -0.745413,0.693676 -0.116704,0.03633 -0.233409,0.07266 -0.35365,0.110075 -0.198554,0.06268 -0.198554,0.06268 -0.401119,0.126617 -0.142852,0.04388 -0.285706,0.08776 -0.432887,0.132976 -0.147796,0.04622 -0.29556,0.09256 -0.443295,0.138967 -0.388217,0.121687 -0.776827,0.242068 -1.165531,0.362179 -0.396856,0.122883 -0.793324,0.246999 -1.189828,0.37101 -0.777522,0.242984 -1.555464,0.484588 -2.3336847,0.725325 -0.1369352,0.881081 -0.2682332,1.746617 -0.262848,2.63936 -2.237e-4,0.08655 -4.69e-4,0.173106 -6.927e-4,0.262282 -1.151e-4,0.180105 2.237e-4,0.360209 0.0013,0.540312 0.0013,0.270282 3.2e-6,0.540474 -0.00141,0.81075 1.151e-4,0.177651 4.68e-4,0.355301 9.37e-4,0.532948 -4.69e-4,0.07788 -9.37e-4,0.15576 -0.00141,0.235997 0.0076,0.810351 0.1400295,1.603967 0.2642717,2.403361 0.08182,0.02514 0.163632,0.05027 0.247928,0.07615 0.7720127,0.237424 1.5435787,0.476246 2.3146737,0.716635 0.396417,0.12353 0.792988,0.246518 1.189953,0.368273 0.456661,0.14009 0.912559,0.282524 1.368454,0.42509 0.142253,0.04329 0.284507,0.08657 0.431073,0.13116 0.132361,0.04178 0.26472,0.08355 0.40109,0.126588 0.116447,0.03607 0.232895,0.07214 0.352871,0.109302 0.42711,0.188021 0.690281,0.429057 0.890391,0.851147 0.02906,0.09048 0.05813,0.18094 0.0881,0.274152 0.03437,0.102363 0.06876,0.204718 0.104176,0.310177 0.0359,0.109256 0.07182,0.218514 0.108821,0.33108 0.890363,2.565137 2.295084,4.83079 4.095901,6.857621 0.06491,0.07716 0.129811,0.154338 0.196683,0.233845 0.0848,0.09578 0.0848,0.09578 0.171305,0.193512 0.256796,0.612957 -0.0772,1.540536 -0.213904,2.17892 -0.01962,0.09296 -0.03922,0.185927 -0.05942,0.281709 -0.04137,0.195712 -0.08291,0.391385 -0.124622,0.587021 -0.06278,0.294423 -0.124991,0.588958 -0.187109,0.883519 -0.04061,0.191781 -0.08124,0.383554 -0.121907,0.575318 -0.01973,0.0932 -0.03946,0.186397 -0.05978,0.282417 -0.0897,0.420221 -0.181928,0.839213 -0.284751,1.256435 -0.03287,0.133755 -0.06572,0.267513 -0.09958,0.40532 -0.02933,0.114384 -0.05866,0.228758 -0.08888,0.346602 -0.05036,0.311178 -0.06,0.473475 0.06803,0.760532 0.201383,0.19196 0.201383,0.19196 0.462704,0.355752 0.09769,0.06531 0.195389,0.130597 0.296043,0.197874 0.159218,0.10283 0.159218,0.10283 0.32165,0.207728 0.16303,0.106869 0.16303,0.106869 0.329353,0.215887 1.081906,0.699707 2.196357,1.342914 3.346897,1.923155 0.0919,0.04693 0.183799,0.09384 0.278484,0.142188 0.524819,0.255596 0.524819,0.255596 1.096486,0.312359 0.264424,-0.112979 0.430658,-0.222451 0.640804,-0.418294 0.07897,-0.07253 0.157929,-0.145065 0.239284,-0.219795 0.09811,-0.09257 0.196211,-0.185145 0.297289,-0.280522 0.135281,-0.126212 0.270641,-0.252343 0.406056,-0.378409 0.302741,-0.282152 0.605105,-0.564704 0.907281,-0.847461 0.522616,-0.488301 1.049581,-0.970561 1.587059,-1.442493 0.107521,-0.09751 0.215055,-0.195015 0.325842,-0.295478 0.110215,-0.09631 0.220438,-0.192622 0.333999,-0.291851 0.09855,-0.08749 0.197107,-0.174976 0.29865,-0.265115 0.562294,-0.339301 1.140533,-0.207183 1.76063,-0.09018 2.828688,0.487705 5.533555,0.481191 8.356307,-0.063 0.735137,-0.117984 0.735137,-0.117984 1.115294,0.09925 0.247746,0.210682 0.464791,0.436999 0.687032,0.674342 0.182329,0.165867 0.366104,0.330154 0.551072,0.493067 0.437099,0.394194 0.871638,0.791073 1.30518,1.189164 0.441147,0.404931 0.882917,0.809125 1.32693,1.210914 0.132578,0.120014 0.132578,0.120014 0.267834,0.242455 0.08629,0.07552 0.172582,0.151046 0.261487,0.228859 0.138411,0.133025 0.138411,0.133025 0.279618,0.268739 0.286592,0.225956 0.286592,0.225956 0.62857,0.190791 0.440678,-0.133503 0.852732,-0.304573 1.267109,-0.503038 0.0853,-0.04062 0.170582,-0.08125 0.258458,-0.123095 1.60959,-0.785806 3.090912,-1.785295 4.527194,-2.849809 -0.178231,-1.199413 -0.433864,-2.38144 -0.68927,-3.566295 -0.07278,-0.33792 -0.14485,-0.675983 -0.216876,-1.01406 -0.04611,-0.214972 -0.09227,-0.429933 -0.138448,-0.644886 -0.02152,-0.101028 -0.04303,-0.202037 -0.0652,-0.306118 -0.100333,-0.496168 -0.100333,-0.496168 -0.282405,-0.965525 -0.05725,-0.343466 -0.05958,-0.590585 0.114654,-0.899122 0.261967,-0.354211 0.546607,-0.685389 0.837036,-1.016497 1.543903,-1.785451 2.797536,-3.879583 3.552981,-6.121647 0.03413,-0.100202 0.06825,-0.200398 0.103417,-0.303635 0.06328,-0.190891 0.123357,-0.382892 0.179516,-0.575999 0.149657,-0.459231 0.277625,-0.742855 0.711814,-0.977525 0.587695,-0.241281 1.200328,-0.41749 1.809696,-0.595034 0.740894,-0.21717 1.478702,-0.444875 2.216501,-0.672302 0.201735,-0.06182 0.403677,-0.122989 0.605797,-0.183541 0.295271,-0.0886 0.589764,-0.179442 0.884196,-0.270781 0.09051,-0.0266 0.181006,-0.0532 0.274254,-0.08061 0.475452,-0.144829 0.475452,-0.144829 0.82968,-0.475392 0.257607,-1.001999 0.196163,-2.070216 0.193257,-3.098099 -6.12e-4,-0.260115 -5e-6,-0.52021 6.1e-4,-0.780329 0.105696,-1.733825 0.105696,-1.733825 -0.363908,-3.324124 -0.267782,-0.14039 -0.267782,-0.14039 -0.594072,-0.230049 -0.123911,-0.03871 -0.247823,-0.0774 -0.375488,-0.117279 -0.134384,-0.04002 -0.268768,-0.08003 -0.407222,-0.121267 -0.206441,-0.06385 -0.206441,-0.06385 -0.417048,-0.128999 -0.36603,-0.112932 -0.732473,-0.224364 -1.099202,-0.335015 -0.516039,-0.156093 -1.031235,-0.314934 -1.546502,-0.473555 -0.274324,-0.08427 -0.548824,-0.167963 -0.823518,-0.251014 -0.124643,-0.03797 -0.249286,-0.07595 -0.377706,-0.115064 -0.109561,-0.03313 -0.21913,-0.06624 -0.332013,-0.100377 -0.701086,-0.239199 -0.701086,-0.239199 -0.875618,-0.532362 -0.02907,-0.0805 -0.05813,-0.160974 -0.0881,-0.2439 -0.03436,-0.0914 -0.06873,-0.182788 -0.104111,-0.276951 -0.03593,-0.09929 -0.07187,-0.198569 -0.10888,-0.300862 -1.008651,-2.633266 -2.271719,-4.948335 -4.104061,-7.098714 -0.139702,-0.165158 -0.277671,-0.331805 -0.413305,-0.500319 -0.05519,-0.06656 -0.110369,-0.133101 -0.167227,-0.201669 -0.284143,-0.556033 -0.06735,-1.184309 0.0852,-1.754285 0.04304,-0.164973 0.08584,-0.330013 0.128422,-0.495106 0.02228,-0.08626 0.04456,-0.172527 0.06751,-0.261404 0.184907,-0.7348133 0.343811,-1.475981 0.50528,-2.2162237 0.04217,-0.1924445 0.08482,-0.3847837 0.127914,-0.5770208 0.06331,-0.2824444 0.125267,-0.5651558 0.18691,-0.8479694 0.01945,-0.085675 0.03888,-0.171353 0.05892,-0.2596265 0.136194,-0.5728038 0.136194,-0.5728038 4.07e-4,-1.1234988 C 53.473334,5.464486 53.473334,5.464486 53.216331,5.3028283 53.119818,5.238123 53.023297,5.1734096 52.923853,5.1067392 52.818627,5.0386494 52.713399,4.9705548 52.60498,4.9003979 52.49706,4.8295442 52.389142,4.75868 52.27795,4.6856725 51.118213,3.935887 49.915167,3.25985 48.682198,2.6380906 48.56684,2.5789483 48.56684,2.5789483 48.449145,2.5186185 48.133476,2.3679319 47.905666,2.2881565 47.553762,2.3068104 c -0.280185,0.105426 -0.437039,0.2076318 -0.655308,0.4110417 -0.117995,0.1083531 -0.117995,0.1083531 -0.238375,0.2188875 -0.09841,0.092871 -0.19681,0.1857433 -0.298198,0.2814298 -0.138004,0.1289268 -0.276082,0.2577762 -0.414213,0.3865684 -0.229526,0.2141398 -0.458946,0.4283909 -0.687992,0.6430425 -0.438628,0.4107126 -0.880981,0.8148094 -1.336845,1.2064114 -0.419447,0.3663944 -0.826855,0.7463991 -1.236293,1.123904 -0.382253,0.3359191 -0.61213,0.3839401 -1.119825,0.379317 C 41.028307,6.9109106 40.505221,6.786874 39.978294,6.6700923 37.676281,6.2000067 35.308464,6.4584238 33.016008,6.8291602 31.68213,7.0329658 31.68213,7.0329658 31.186041,6.7348966 31.085394,6.6463548 30.984744,6.5578283 30.881046,6.4666102 30.771569,6.3711957 30.662103,6.2757813 30.549313,6.1774755 30.198388,5.851907 29.857931,5.519041 29.524205,5.1759334 29.251298,4.9018841 28.961059,4.6531549 28.667683,4.4014368 28.182117,3.9716054 27.712463,3.5244564 27.241474,3.0787551 27.168806,3.010349 27.096128,2.9419536 27.021255,2.8714781 26.95608,2.8098178 26.890902,2.7481552 26.823751,2.6846245 26.10909,2.0550865 25.600344,2.3574959 24.848224,2.7178497 Z"
   fill="#404040"
   id="path134"
   style="stroke-width:0.116016" /><path
   d="m 44.023746,19.349294 c 0.285687,0.260685 0.557825,0.532299 0.829956,0.807182 0.09153,0.08899 0.183051,0.177968 0.277349,0.269647 1.202514,1.238253 2.043062,2.832937 2.50703,4.487002 0.03679,0.129958 0.07358,0.259921 0.111481,0.393817 0.678071,2.821156 0.200902,5.825216 -1.253515,8.327306 -0.511712,0.800061 -1.103821,1.498592 -1.758364,2.184361 -0.09174,0.104762 -0.09174,0.104762 -0.185354,0.211638 -1.736793,1.905586 -4.554709,2.944533 -7.083307,3.080762 -1.390897,0.04318 -2.658209,-0.09139 -3.984872,-0.508022 -0.130409,-0.04067 -0.260818,-0.08135 -0.39518,-0.123267 -1.720878,-0.601473 -3.094781,-1.60446 -4.361467,-2.893143 -0.08824,-0.08839 -0.176471,-0.176769 -0.267381,-0.267832 -1.969073,-2.087832 -2.863961,-5.051872 -2.781659,-7.880011 0.145946,-3.003451 1.384476,-5.538009 3.513104,-7.630306 0.08839,-0.08824 0.176769,-0.176471 0.267832,-0.26738 3.896508,-3.674873 10.562096,-3.689528 14.564344,-0.191754 z m -13.571411,1.877608 c -1.697605,1.642097 -2.759708,3.890444 -2.802959,6.263041 -0.0146,2.364812 0.551258,4.52702 2.122272,6.356395 0.05758,0.07403 0.115158,0.148059 0.174477,0.224328 1.299647,1.606555 3.460929,2.759303 5.510298,3.024118 2.827257,0.228722 5.346561,-0.40711 7.545106,-2.241011 1.614246,-1.461115 2.878164,-3.612252 3.032865,-5.825883 0.05985,-2.615597 -0.353288,-4.970923 -2.108819,-7.015162 -0.05758,-0.07402 -0.115158,-0.148055 -0.174478,-0.224327 -1.504106,-1.859294 -3.807973,-2.831387 -6.138158,-3.096114 -2.649578,-0.233029 -5.213877,0.760917 -7.160604,2.534615 z"
   fill="#404040"
   id="path136"
   style="stroke-width:0.116016" /></g>
</svg>
