<?xml version="1.0" encoding="UTF-8" standalone="no"?>
<!-- Generator: Adobe Illustrator 16.0.0, SVG Export Plug-In . SVG Version: 6.00 Build 0)  -->

<svg
   version="1.1"
   id="Layer_1"
   x="0px"
   y="0px"
   width="74px"
   height="56px"
   viewBox="0 0 74 56"
   enable-background="new 0 0 74 56"
   xml:space="preserve"
   sodipodi:docname="unsupervised-learning.svg"
   inkscape:version="1.2.1 (9c6d41e, 2022-07-14)"
   xmlns:inkscape="http://www.inkscape.org/namespaces/inkscape"
   xmlns:sodipodi="http://sodipodi.sourceforge.net/DTD/sodipodi-0.dtd"
   xmlns="http://www.w3.org/2000/svg"
   xmlns:svg="http://www.w3.org/2000/svg"><defs
   id="defs83" /><sodipodi:namedview
   id="namedview81"
   pagecolor="#ffffff"
   bordercolor="#666666"
   borderopacity="1.0"
   inkscape:pageshadow="2"
   inkscape:pageopacity="0.0"
   inkscape:pagecheckerboard="0"
   showgrid="false"
   showguides="false"
   inkscape:zoom="8.5154322"
   inkscape:cx="29.241029"
   inkscape:cy="33.879666"
   inkscape:window-width="1512"
   inkscape:window-height="833"
   inkscape:window-x="0"
   inkscape:window-y="38"
   inkscape:window-maximized="1"
   inkscape:current-layer="g78"
   inkscape:snap-grids="false"
   inkscape:snap-to-guides="false"
   inkscape:snap-others="false"
   inkscape:object-nodes="false"
   inkscape:snap-nodes="false"
   inkscape:snap-global="false"
   inkscape:showpageshadow="2"
   inkscape:deskcolor="#d1d1d1" />
<g
   id="g78">
<path
   d="m 13.459399,20.399122 c 0.05778,0.06007 0.05778,0.06007 0.11673,0.121353 0.07208,0.07094 0.07208,0.07094 0.14562,0.143311 0.05569,0.05645 0.111371,0.112892 0.168738,0.171049 0.112191,0.1051 0.225544,0.208851 0.339009,0.312572 0.125093,0.114391 0.249512,0.229476 0.373791,0.344751 0.158593,0.146938 0.317442,0.293583 0.47674,0.439757 0.05471,0.05036 0.05471,0.05036 0.110521,0.101747 0.07338,0.0669 0.147351,0.133133 0.221902,0.198714 0.191992,0.170389 0.360251,0.340064 0.517624,0.543231 0.201731,0.24632 0.394833,0.457523 0.697198,0.574111 0.343858,0.02638 0.67461,-0.04025 1.012206,-0.100473 0.679637,-0.121048 1.332275,-0.151397 2.02044,-0.149161 0.08041,-1.43e-4 0.08041,-1.43e-4 0.162455,-3.63e-4 0.714517,-2.99e-4 1.392336,0.06121 2.098161,0.180633 0.517163,0.09331 0.517163,0.09331 1.007512,-0.04594 0.172457,-0.172459 0.297881,-0.34621 0.430221,-0.550419 0.130021,-0.123952 0.130021,-0.123952 0.268129,-0.23577 0.297558,-0.255302 0.583178,-0.522389 0.869114,-0.790522 1.469873,-1.376707 1.469873,-1.376707 1.948062,-1.363405 0.322136,0.0433 0.60547,0.176406 0.899667,0.309375 0.101736,0.04501 0.101736,0.04501 0.205522,0.09093 1.461197,0.658857 3.025126,1.512449 4.167777,2.655101 0.07747,0.543549 -0.05498,1.077061 -0.180583,1.602714 -0.03741,0.163777 -0.07483,0.327554 -0.11225,0.491333 -0.05934,0.255204 -0.119,0.510333 -0.17876,0.765439 -0.05784,0.248154 -0.114597,0.49654 -0.171284,0.74496 -0.01819,0.07591 -0.03635,0.151809 -0.05508,0.230012 -0.09159,0.402504 -0.143288,0.718124 -0.04171,1.121331 0.106777,0.16213 0.106777,0.16213 0.254262,0.295869 0.968447,1.020417 2.556485,3.275739 2.556485,4.733887 0.04388,0.0078 0.08778,0.01564 0.132985,0.02369 0.487395,0.09153 0.954056,0.220937 1.42639,0.370996 0.07523,0.02372 0.150479,0.04743 0.227999,0.07187 0.15776,0.04991 0.315453,0.100015 0.473082,0.150325 0.240899,0.07668 0.482183,0.152055 0.723506,0.227392 0.153883,0.04885 0.307741,0.09777 0.461572,0.146776 0.07181,0.02229 0.143627,0.04455 0.217617,0.0675 0.359555,0.116203 0.650091,0.220366 0.922804,0.494756 0.06588,0.167292 0.06588,0.167292 0.09246,0.346721 0.0095,0.05826 0.01907,0.116516 0.02889,0.176537 0.0087,0.07142 0.01755,0.142833 0.02658,0.216412 0.006,0.04615 0.01209,0.0923 0.01833,0.139857 0.05309,0.431497 0.06751,0.85647 0.06805,1.290942 2.59e-4,0.0716 5.2e-4,0.143195 7.65e-4,0.216961 3.89e-4,0.150929 5.19e-4,0.301858 5.19e-4,0.452787 1.29e-4,0.226728 0.0016,0.453427 0.0029,0.68015 0.0069,2.247698 0.0069,2.247698 -0.283082,2.750377 -0.224013,0.207655 -0.453222,0.290931 -0.73931,0.379063 -0.05495,0.01801 -0.109896,0.03601 -0.166514,0.05456 -0.177497,0.05783 -0.355495,0.113918 -0.533572,0.169941 -0.121577,0.03916 -0.243121,0.07844 -0.364635,0.117814 -0.237875,0.07684 -0.475957,0.152986 -0.714278,0.228438 -0.267195,0.08461 -0.53375,0.171009 -0.800023,0.258487 -0.124124,0.04042 -0.248267,0.08078 -0.372435,0.121061 -0.05416,0.01773 -0.108331,0.03547 -0.164131,0.05372 -0.244829,0.0775 -0.425941,0.112702 -0.686489,0.112702 -0.0078,0.04958 -0.01564,0.09916 -0.0237,0.150245 -0.395498,1.727471 -1.53931,3.582355 -2.770006,4.837617 -0.233542,0.487102 0.03263,1.200127 0.15198,1.70384 0.03349,0.145908 0.06695,0.291819 0.100406,0.437735 0.05247,0.226461 0.105189,0.452858 0.158282,0.679174 0.05162,0.220819 0.102239,0.44185 0.152755,0.662921 0.02392,0.100003 0.02392,0.100003 0.04832,0.20203 0.247454,1.090301 0.247454,1.090301 -0.0041,1.498635 -0.05664,0.0452 -0.113272,0.09039 -0.171628,0.136953 -0.101546,0.08109 -0.101546,0.08109 -0.205142,0.163826 -0.08225,0.05993 -0.164926,0.119327 -0.247906,0.178271 -0.0476,0.03415 -0.09521,0.06828 -0.14425,0.10348 -1.033177,0.732015 -2.127883,1.344421 -3.267477,1.893635 -0.05692,0.02766 -0.113832,0.05533 -0.172475,0.08384 -0.872453,0.410771 -0.872453,0.410771 -1.334603,0.295235 -0.282662,-0.144857 -0.485419,-0.366402 -0.702107,-0.594626 -0.132252,-0.137396 -0.267055,-0.261809 -0.41202,-0.385437 -0.298907,-0.257046 -0.586192,-0.525562 -0.873736,-0.795145 -0.493082,-0.461676 -0.493082,-0.461676 -0.989309,-0.919965 -0.05605,-0.05158 -0.112129,-0.103167 -0.169891,-0.156313 -0.145482,-0.131123 -0.145482,-0.131123 -0.366367,-0.190408 -0.156994,0.02243 -0.313919,0.04557 -0.470205,0.07248 -0.800744,0.135408 -1.594926,0.175972 -2.405264,0.177152 -0.05384,2.58e-4 -0.107671,3.89e-4 -0.16314,6.37e-4 -0.717118,5.2e-4 -1.394225,-0.06244 -2.102098,-0.185534 -0.530486,-0.09403 -0.530486,-0.09403 -1.028604,0.06703 -0.190834,0.190835 -0.336763,0.38482 -0.487721,0.607917 -0.134931,0.128864 -0.134931,0.128864 -0.272752,0.240393 -0.296219,0.253558 -0.580072,0.519303 -0.864491,0.785899 -0.09689,0.09035 -0.193774,0.180682 -0.290666,0.271021 -0.16498,0.154008 -0.328795,0.309026 -0.491188,0.46576 -0.624144,0.589787 -0.624144,0.589787 -1.039582,0.603871 -0.335029,-0.09037 -0.646159,-0.227402 -0.961572,-0.369836 -0.04714,-0.02044 -0.09427,-0.04088 -0.142841,-0.06193 -1.411403,-0.61222 -2.7117539,-1.436621 -3.9253431,-2.378971 -0.061028,-0.04272 -0.1220453,-0.08543 -0.1849167,-0.129444 -0.2130243,-0.319534 -0.136445,-0.745036 -0.07842,-1.111568 0.045503,-0.220249 0.09579,-0.438829 0.1480583,-0.65757 0.037411,-0.163777 0.074832,-0.327554 0.1122506,-0.491331 0.05934,-0.255206 0.1189961,-0.510333 0.1787591,-0.765441 0.057843,-0.248153 0.1145967,-0.496538 0.1712826,-0.74496 0.018186,-0.0759 0.036349,-0.151808 0.055082,-0.230013 0.091587,-0.402502 0.1432889,-0.718122 0.041691,-1.121329 C 8.2361668,47.522729 8.2361668,47.522729 8.0886818,47.388993 6.93164,46.169855 5.880358,44.297248 5.532196,42.655103 5.488314,42.647303 5.44442,42.639463 5.3992115,42.631413 4.9118473,42.539893 4.4451858,42.410483 3.9728506,42.260423 3.8976156,42.236703 3.8223713,42.212993 3.744852,42.188553 3.587156,42.138644 3.4294628,42.088536 3.2718355,42.038218 3.0309349,41.961541 2.7896509,41.886163 2.5483267,41.810827 2.394445,41.761971 2.2405867,41.713059 2.0867564,41.66405 2.0149197,41.641785 1.9431031,41.619508 1.8691136,41.596561 1.5094908,41.480338 1.2192154,41.376075 0.94631074,41.101803 c -0.0658792,-0.164692 -0.0658792,-0.164692 -0.0924589,-0.342096 -0.0142958,-0.0861 -0.0142958,-0.0861 -0.0288934,-0.173938 -0.0676899,-0.569479 -0.11222938,-1.129504 -0.11297379,-1.703262 -2.2131e-4,-0.0682 -5.1751e-4,-0.136421 -7.5894e-4,-0.206697 -3.6885e-4,-0.143522 -5.1751e-4,-0.287042 -5.1751e-4,-0.430566 -1.4754e-4,-0.215356 -0.001565,-0.430685 -0.002906,-0.646036 -0.002012,-0.649659 0.007265,-1.294276 0.0775819,-1.940623 0.007712,-0.07573 0.007712,-0.07573 0.0155477,-0.152982 0.0384612,-0.306116 0.089564,-0.53068 0.29332568,-0.76496 0.4589849,-0.271139 0.9934425,-0.410925 1.4995645,-0.567467 0.077336,-0.02421 0.1546742,-0.04842 0.2343552,-0.07336 0.1621775,-0.05065 0.3244176,-0.101121 0.4867147,-0.151395 0.2489808,-0.07719 0.4977111,-0.155155 0.7464235,-0.233207 0.1580319,-0.04926 0.3160794,-0.09847 0.4741414,-0.147643 0.07443,-0.02334 0.1488553,-0.04669 0.2255385,-0.07073 0.103368,-0.03189 0.103368,-0.03189 0.2088362,-0.06441 0.090861,-0.02822 0.090861,-0.02822 0.183552,-0.05703 0.1569923,-0.04014 0.1569923,-0.04014 0.3788937,-0.04014 0.016386,-0.07129 0.016386,-0.07129 0.033107,-0.144015 0.1444503,-0.580127 0.3665442,-1.099383 0.6279798,-1.635815 0.042306,-0.08724 0.084612,-0.174476 0.1281951,-0.264355 0.5356771,-1.081303 1.1957311,-2.066301 1.9927656,-2.973317 0.1243981,-0.194085 0.1207621,-0.27467 0.090123,-0.500118 -0.013234,-0.09777 -0.013234,-0.09777 -0.026725,-0.197503 C 8.3213665,27.291598 8.2508487,26.96787 8.1740034,26.643563 8.1404714,26.49759 8.1070065,26.351679 8.0735527,26.205762 8.0210863,25.9793 7.9683628,25.752902 7.9152705,25.526587 7.8636535,25.305769 7.8130314,25.084739 7.7625154,24.863665 c -0.01595,-0.06666 -0.0319,-0.133337 -0.04832,-0.202027 -0.098718,-0.434979 -0.1620899,-0.865569 -0.1108787,-1.311984 0.1227964,-0.191853 0.1227964,-0.191853 0.3004903,-0.332851 0.068271,-0.05445 0.136539,-0.10889 0.2068757,-0.164982 0.076665,-0.0554 0.1533195,-0.11079 0.232303,-0.16787 0.039232,-0.02857 0.078476,-0.05714 0.1188967,-0.08657 1.0648422,-0.766022 2.2273396,-1.409036 3.4130266,-1.966012 0.06598,-0.03185 0.131975,-0.06369 0.199961,-0.09651 0.443203,-0.201568 0.922093,-0.371992 1.384554,-0.135772 z m 2.122506,13.322727 c -1.082325,1.046938 -1.759479,2.480391 -1.787054,3.993063 -0.0093,1.50771 0.35146,2.886245 1.353075,4.052581 0.03671,0.0472 0.07342,0.09439 0.111237,0.143025 0.828602,1.024273 2.206548,1.759219 3.513143,1.928053 1.802545,0.145824 3.408751,-0.259555 4.810454,-1.428776 1.02918,-0.93155 1.835003,-2.303026 1.933634,-3.71435 0.03816,-1.667599 -0.225242,-3.169259 -1.344498,-4.472585 -0.03671,-0.04719 -0.07342,-0.09439 -0.111237,-0.143021 -0.958957,-1.185411 -2.427809,-1.805179 -3.913441,-1.973958 -1.689264,-0.148569 -3.324159,0.485131 -4.565313,1.615968 z"
   fill="#9d9d9d"
   id="path132"
   style="stroke-width:0.0739671" /><path
   d="m 13.459399,20.399122 c 0.05778,0.06007 0.05778,0.06007 0.11673,0.121353 0.07208,0.07094 0.07208,0.07094 0.14562,0.143311 0.05569,0.05645 0.111371,0.112892 0.168738,0.171049 0.112191,0.1051 0.225544,0.208851 0.339009,0.312572 0.125093,0.114391 0.249512,0.229476 0.373791,0.344751 0.158593,0.146938 0.317442,0.293583 0.47674,0.439757 0.05471,0.05036 0.05471,0.05036 0.110521,0.101747 0.07338,0.0669 0.147351,0.133133 0.221902,0.198714 0.191992,0.170389 0.360251,0.340064 0.517624,0.543231 0.201731,0.24632 0.394833,0.457523 0.697198,0.574111 0.343858,0.02638 0.67461,-0.04025 1.012206,-0.100473 0.679637,-0.121048 1.332275,-0.151397 2.02044,-0.149161 0.08041,-1.43e-4 0.08041,-1.43e-4 0.162455,-3.63e-4 0.714517,-2.99e-4 1.392336,0.06121 2.098161,0.180633 0.517163,0.09331 0.517163,0.09331 1.007512,-0.04594 0.172457,-0.172459 0.297881,-0.34621 0.430221,-0.550419 0.130021,-0.123952 0.130021,-0.123952 0.268129,-0.23577 0.297558,-0.255302 0.583178,-0.522389 0.869114,-0.790522 1.469873,-1.376707 1.469873,-1.376707 1.948062,-1.363405 0.322136,0.0433 0.60547,0.176406 0.899667,0.309375 0.101736,0.04501 0.101736,0.04501 0.205522,0.09093 1.461197,0.658857 3.025126,1.512449 4.167777,2.655101 0.07747,0.543549 -0.05498,1.077061 -0.180583,1.602714 -0.03741,0.163777 -0.07483,0.327554 -0.11225,0.491333 -0.05934,0.255204 -0.119,0.510333 -0.17876,0.765439 -0.05784,0.248154 -0.114597,0.49654 -0.171284,0.74496 -0.01819,0.07591 -0.03635,0.151809 -0.05508,0.230012 -0.09159,0.402504 -0.143288,0.718124 -0.04171,1.121331 0.106777,0.16213 0.106777,0.16213 0.254262,0.295869 0.968447,1.020417 2.556485,3.275739 2.556485,4.733887 0.04388,0.0078 0.08778,0.01564 0.132985,0.02369 0.487395,0.09153 0.954056,0.220937 1.42639,0.370996 0.07523,0.02372 0.150479,0.04743 0.227999,0.07187 0.15776,0.04991 0.315453,0.100015 0.473082,0.150325 0.240899,0.07668 0.482183,0.152055 0.723506,0.227392 0.153883,0.04885 0.307741,0.09777 0.461572,0.146776 0.07181,0.02229 0.143627,0.04455 0.217617,0.0675 0.359555,0.116203 0.650091,0.220366 0.922804,0.494756 0.06588,0.167292 0.06588,0.167292 0.09246,0.346721 0.0095,0.05826 0.01907,0.116516 0.02889,0.176537 0.0087,0.07142 0.01755,0.142833 0.02658,0.216412 0.006,0.04615 0.01209,0.0923 0.01833,0.139857 0.05309,0.431497 0.06751,0.85647 0.06805,1.290942 2.59e-4,0.0716 5.2e-4,0.143195 7.65e-4,0.216961 3.89e-4,0.150929 5.19e-4,0.301858 5.19e-4,0.452787 1.29e-4,0.226728 0.0016,0.453427 0.0029,0.68015 0.0069,2.247698 0.0069,2.247698 -0.283082,2.750377 -0.224013,0.207655 -0.453222,0.290931 -0.73931,0.379063 -0.05495,0.01801 -0.109896,0.03601 -0.166514,0.05456 -0.177497,0.05783 -0.355495,0.113918 -0.533572,0.169941 -0.121577,0.03916 -0.243121,0.07844 -0.364635,0.117814 -0.237875,0.07684 -0.475957,0.152986 -0.714278,0.228438 -0.267195,0.08461 -0.53375,0.171009 -0.800023,0.258487 -0.124124,0.04042 -0.248267,0.08078 -0.372435,0.121061 -0.05416,0.01773 -0.108331,0.03547 -0.164131,0.05372 -0.244829,0.0775 -0.425941,0.112702 -0.686489,0.112702 -0.0078,0.04958 -0.01564,0.09916 -0.0237,0.150245 -0.395498,1.727471 -1.53931,3.582355 -2.770006,4.837617 -0.233542,0.487102 0.03263,1.200127 0.15198,1.70384 0.03349,0.145908 0.06695,0.291819 0.100406,0.437735 0.05247,0.226461 0.105189,0.452858 0.158282,0.679174 0.05162,0.220819 0.102239,0.44185 0.152755,0.662921 0.02392,0.100003 0.02392,0.100003 0.04832,0.20203 0.247454,1.090301 0.247454,1.090301 -0.0041,1.498635 -0.05664,0.0452 -0.113272,0.09039 -0.171628,0.136953 -0.101546,0.08109 -0.101546,0.08109 -0.205142,0.163826 -0.08225,0.05993 -0.164926,0.119327 -0.247906,0.178271 -0.0476,0.03415 -0.09521,0.06828 -0.14425,0.10348 -1.033177,0.732015 -2.127883,1.344421 -3.267477,1.893635 -0.05692,0.02766 -0.113832,0.05533 -0.172475,0.08384 -0.872453,0.410771 -0.872453,0.410771 -1.334603,0.295235 -0.282662,-0.144857 -0.485419,-0.366402 -0.702107,-0.594626 -0.132252,-0.137396 -0.267055,-0.261809 -0.41202,-0.385437 -0.298907,-0.257046 -0.586192,-0.525562 -0.873736,-0.795145 -0.493082,-0.461676 -0.493082,-0.461676 -0.989309,-0.919965 -0.05605,-0.05158 -0.112129,-0.103167 -0.169891,-0.156313 -0.145482,-0.131123 -0.145482,-0.131123 -0.366367,-0.190408 -0.156994,0.02243 -0.313919,0.04557 -0.470205,0.07248 -0.800744,0.135408 -1.594926,0.175972 -2.405264,0.177152 -0.05384,2.58e-4 -0.107671,3.89e-4 -0.16314,6.37e-4 -0.717118,5.2e-4 -1.394225,-0.06244 -2.102098,-0.185534 -0.530486,-0.09403 -0.530486,-0.09403 -1.028604,0.06703 -0.190834,0.190835 -0.336763,0.38482 -0.487721,0.607917 -0.134931,0.128864 -0.134931,0.128864 -0.272752,0.240393 -0.296219,0.253558 -0.580072,0.519303 -0.864491,0.785899 -0.09689,0.09035 -0.193774,0.180682 -0.290666,0.271021 -0.16498,0.154008 -0.328795,0.309026 -0.491188,0.46576 -0.624144,0.589787 -0.624144,0.589787 -1.039582,0.603871 -0.335029,-0.09037 -0.646159,-0.227402 -0.961572,-0.369836 -0.04714,-0.02044 -0.09427,-0.04088 -0.142841,-0.06193 -1.411403,-0.61222 -2.7117539,-1.436621 -3.9253431,-2.378971 -0.061028,-0.04272 -0.1220453,-0.08543 -0.1849167,-0.129444 -0.2130243,-0.319534 -0.136445,-0.745036 -0.07842,-1.111568 0.045503,-0.220249 0.09579,-0.438829 0.1480583,-0.65757 0.037411,-0.163777 0.074832,-0.327554 0.1122506,-0.491331 0.05934,-0.255206 0.1189961,-0.510333 0.1787591,-0.765441 0.057843,-0.248153 0.1145967,-0.496538 0.1712826,-0.74496 0.018186,-0.0759 0.036349,-0.151808 0.055082,-0.230013 0.091587,-0.402502 0.1432889,-0.718122 0.041691,-1.121329 C 8.2361668,47.522729 8.2361668,47.522729 8.0886818,47.388993 6.93164,46.169855 5.880358,44.297248 5.532196,42.655103 5.488314,42.647303 5.44442,42.639463 5.3992115,42.631413 4.9118473,42.539893 4.4451858,42.410483 3.9728506,42.260423 3.8976156,42.236703 3.8223713,42.212993 3.744852,42.188553 3.587156,42.138644 3.4294628,42.088536 3.2718355,42.038218 3.0309349,41.961541 2.7896509,41.886163 2.5483267,41.810827 2.394445,41.761971 2.2405867,41.713059 2.0867564,41.66405 2.0149197,41.641785 1.9431031,41.619508 1.8691136,41.596561 1.5094908,41.480338 1.2192154,41.376075 0.94631074,41.101803 c -0.0658792,-0.164692 -0.0658792,-0.164692 -0.0924589,-0.342096 -0.0142958,-0.0861 -0.0142958,-0.0861 -0.0288934,-0.173938 -0.0676899,-0.569479 -0.11222938,-1.129504 -0.11297379,-1.703262 -2.2131e-4,-0.0682 -5.1751e-4,-0.136421 -7.5894e-4,-0.206697 -3.6885e-4,-0.143522 -5.1751e-4,-0.287042 -5.1751e-4,-0.430566 -1.4754e-4,-0.215356 -0.001565,-0.430685 -0.002906,-0.646036 -0.002012,-0.649659 0.007265,-1.294276 0.0775819,-1.940623 0.007712,-0.07573 0.007712,-0.07573 0.0155477,-0.152982 0.0384612,-0.306116 0.089564,-0.53068 0.29332568,-0.76496 0.4589849,-0.271139 0.9934425,-0.410925 1.4995645,-0.567467 0.077336,-0.02421 0.1546742,-0.04842 0.2343552,-0.07336 0.1621775,-0.05065 0.3244176,-0.101121 0.4867147,-0.151395 0.2489808,-0.07719 0.4977111,-0.155155 0.7464235,-0.233207 0.1580319,-0.04926 0.3160794,-0.09847 0.4741414,-0.147643 0.07443,-0.02334 0.1488553,-0.04669 0.2255385,-0.07073 0.103368,-0.03189 0.103368,-0.03189 0.2088362,-0.06441 0.090861,-0.02822 0.090861,-0.02822 0.183552,-0.05703 0.1569923,-0.04014 0.1569923,-0.04014 0.3788937,-0.04014 0.016386,-0.07129 0.016386,-0.07129 0.033107,-0.144015 0.1444503,-0.580127 0.3665442,-1.099383 0.6279798,-1.635815 0.042306,-0.08724 0.084612,-0.174476 0.1281951,-0.264355 0.5356771,-1.081303 1.1957311,-2.066301 1.9927656,-2.973317 0.1243981,-0.194085 0.1207621,-0.27467 0.090123,-0.500118 -0.013234,-0.09777 -0.013234,-0.09777 -0.026725,-0.197503 C 8.3213665,27.291598 8.2508487,26.96787 8.1740034,26.643563 8.1404714,26.49759 8.1070065,26.351679 8.0735527,26.205762 8.0210863,25.9793 7.9683628,25.752902 7.9152705,25.526587 7.8636535,25.305769 7.8130314,25.084739 7.7625154,24.863665 c -0.01595,-0.06666 -0.0319,-0.133337 -0.04832,-0.202027 -0.098718,-0.434979 -0.1620899,-0.865569 -0.1108787,-1.311984 0.1227964,-0.191853 0.1227964,-0.191853 0.3004903,-0.332851 0.068271,-0.05445 0.136539,-0.10889 0.2068757,-0.164982 0.076665,-0.0554 0.1533195,-0.11079 0.232303,-0.16787 0.039232,-0.02857 0.078476,-0.05714 0.1188967,-0.08657 1.0648422,-0.766022 2.2273396,-1.409036 3.4130266,-1.966012 0.06598,-0.03185 0.131975,-0.06369 0.199961,-0.09651 0.443203,-0.201568 0.922093,-0.371992 1.384554,-0.135772 z m -1.450448,1.522103 c -0.09189,0.04383 -0.09189,0.04383 -0.18564,0.08854 -1.044145,0.511626 -2.0435796,1.14533 -2.96258,1.857716 0.049773,0.667727 0.2127606,1.310139 0.3652116,1.960125 0.02696,0.116047 0.053875,0.232101 0.080756,0.348166 0.051058,0.220306 0.1022279,0.440587 0.1534961,0.660844 0.073491,0.316652 0.1459469,0.633289 0.2141711,0.951116 0.022601,0.102262 0.022601,0.102262 0.045648,0.206586 0.038182,0.35462 -0.00347,0.54765 -0.2126544,0.842243 -0.1512304,0.176206 -0.3095227,0.345612 -0.4672047,0.516036 -1.0794187,1.178544 -1.8332248,2.734936 -2.3579146,4.229499 -0.021762,0.06137 -0.043525,0.122748 -0.065946,0.185983 -0.018454,0.05403 -0.036896,0.108051 -0.055909,0.163719 -0.110175,0.236767 -0.2330709,0.342107 -0.4752457,0.442259 -0.074407,0.02316 -0.1488117,0.04633 -0.2254725,0.07018 -0.1265904,0.03996 -0.1265904,0.03996 -0.2557378,0.08072 -0.091073,0.02798 -0.1821548,0.05595 -0.2759918,0.08478 -0.094225,0.02946 -0.1884365,0.05902 -0.2826268,0.0886 -0.247512,0.07758 -0.4952732,0.154332 -0.743096,0.23091 -0.253019,0.07834 -0.5057911,0.157477 -0.7585855,0.236542 -0.495717,0.154916 -0.9917012,0.308953 -1.4878642,0.462437 -0.087306,0.561742 -0.1710143,1.113572 -0.1675806,1.68275 -1.431e-4,0.05518 -2.996e-4,0.110365 -4.415e-4,0.16722 -7.38e-5,0.114828 1.419e-4,0.229655 8.282e-4,0.344482 8.294e-4,0.172321 2.3e-6,0.344584 -8.986e-4,0.516901 7.37e-5,0.113264 2.984e-4,0.226526 5.968e-4,0.339786 -2.984e-4,0.04965 -5.968e-4,0.09931 -8.986e-4,0.150462 0.00481,0.516648 0.089273,1.022625 0.1684893,1.532286 0.052165,0.01603 0.1043293,0.03205 0.1580688,0.04856 0.492204,0.151372 0.9841229,0.303635 1.4757423,0.456898 0.2527397,0.07876 0.5055777,0.15717 0.758666,0.234795 0.2911495,0.08932 0.5818116,0.180127 0.8724715,0.271021 0.090693,0.0276 0.1813902,0.05519 0.274835,0.08363 0.084389,0.02664 0.1687744,0.05327 0.2557187,0.08071 0.07424,0.02299 0.1484842,0.04599 0.2249763,0.06969 0.2723089,0.119874 0.4400952,0.273549 0.5676778,0.542657 0.018532,0.05769 0.037064,0.11536 0.056166,0.174788 0.021919,0.06526 0.043838,0.13052 0.066416,0.197757 0.022891,0.06966 0.045794,0.139315 0.069378,0.211083 0.5676599,1.635428 1.4632528,3.079917 2.6113818,4.372143 0.041379,0.04919 0.082757,0.09839 0.1253963,0.14909 0.054065,0.06106 0.054065,0.06106 0.1092137,0.123375 0.1637234,0.390797 -0.049214,0.982184 -0.1363757,1.389192 -0.012507,0.05927 -0.025004,0.11854 -0.03788,0.179606 -0.026378,0.124778 -0.052858,0.249532 -0.07946,0.374261 -0.040026,0.187712 -0.079694,0.375496 -0.1192923,0.563296 -0.025887,0.122272 -0.051796,0.244539 -0.077727,0.3668 -0.012575,0.05942 -0.02516,0.118839 -0.038115,0.180058 -0.057194,0.267915 -0.1159906,0.535048 -0.1815467,0.801052 -0.020957,0.08528 -0.041904,0.170556 -0.063487,0.258416 -0.0187,0.07292 -0.037399,0.145847 -0.056669,0.220979 -0.032101,0.198395 -0.038249,0.301869 0.043368,0.484884 0.1283929,0.122387 0.1283929,0.122387 0.2950011,0.226814 0.06228,0.04164 0.1245725,0.08326 0.188745,0.126157 0.1015125,0.06556 0.1015125,0.06556 0.2050716,0.132439 0.1039381,0.06814 0.1039381,0.06814 0.2099819,0.137641 0.6897801,0.446104 1.4003081,0.856187 2.1338471,1.226125 0.05859,0.02992 0.117182,0.05983 0.17755,0.09066 0.334603,0.162957 0.334603,0.162957 0.699075,0.199146 0.168586,-0.07203 0.27457,-0.141824 0.40855,-0.266686 0.05035,-0.04624 0.100686,-0.09249 0.152559,-0.140133 0.06255,-0.05902 0.125096,-0.118042 0.189539,-0.17885 0.08626,-0.08046 0.17255,-0.160883 0.258885,-0.241258 0.193016,-0.179889 0.38579,-0.360032 0.578446,-0.540307 0.333199,-0.311321 0.66917,-0.61879 1.011845,-0.919675 0.06855,-0.06217 0.13711,-0.124335 0.207743,-0.188385 0.07027,-0.06141 0.140543,-0.122808 0.212945,-0.186073 0.06283,-0.05579 0.125667,-0.111561 0.190407,-0.169027 0.358496,-0.216324 0.727157,-0.132091 1.122506,-0.0575 1.803459,0.310941 3.527973,0.306789 5.327645,-0.04017 0.468694,-0.07522 0.468694,-0.07522 0.711067,0.06327 0.157953,0.134322 0.296332,0.278613 0.438024,0.429934 0.116245,0.105748 0.233413,0.210492 0.351341,0.314359 0.278677,0.251322 0.555722,0.504357 0.832131,0.758163 0.281257,0.258168 0.562911,0.515865 0.845996,0.772031 0.08452,0.07652 0.08452,0.07652 0.170761,0.154579 0.05502,0.04815 0.11003,0.0963 0.166713,0.145911 0.08825,0.08481 0.08825,0.08481 0.178273,0.171337 0.18272,0.144061 0.18272,0.144061 0.400751,0.121641 0.280959,-0.08512 0.543668,-0.194184 0.807858,-0.320717 0.05439,-0.0259 0.108755,-0.05181 0.164783,-0.07848 1.02621,-0.500998 1.970641,-1.138233 2.886356,-1.816924 -0.113633,-0.764697 -0.276614,-1.51831 -0.439451,-2.273725 -0.0464,-0.215445 -0.09235,-0.430979 -0.138272,-0.646524 -0.0294,-0.137058 -0.05883,-0.274108 -0.08827,-0.411154 -0.01373,-0.06442 -0.02743,-0.12881 -0.04157,-0.195169 -0.06397,-0.316336 -0.06397,-0.316336 -0.18005,-0.615579 -0.0365,-0.21898 -0.03799,-0.376533 0.0731,-0.573244 0.16702,-0.22583 0.348495,-0.436976 0.533661,-0.648078 0.984329,-1.138331 1.783596,-2.473465 2.265237,-3.902915 0.02176,-0.06389 0.04351,-0.127765 0.06594,-0.193585 0.04034,-0.121705 0.07864,-0.244117 0.114452,-0.367234 0.09542,-0.292787 0.177002,-0.473615 0.453823,-0.62323 0.374691,-0.153832 0.765281,-0.266175 1.15379,-0.37937 0.472364,-0.138459 0.942761,-0.283635 1.413152,-0.428633 0.128618,-0.03941 0.257368,-0.07841 0.386232,-0.117019 0.188252,-0.05649 0.376009,-0.114404 0.563728,-0.172638 0.05771,-0.01696 0.115401,-0.03392 0.174852,-0.05139 0.30313,-0.09234 0.30313,-0.09234 0.528971,-0.303091 0.16424,-0.638834 0.125065,-1.319887 0.123213,-1.975223 -3.9e-4,-0.165839 -3e-6,-0.331665 3.89e-4,-0.497506 0.06739,-1.105417 0.06739,-1.105417 -0.232013,-2.119328 -0.170727,-0.08951 -0.170727,-0.08951 -0.378757,-0.14667 -0.079,-0.02468 -0.158001,-0.04935 -0.239396,-0.07478 -0.08567,-0.02552 -0.171355,-0.05102 -0.259628,-0.07731 -0.131619,-0.04071 -0.131619,-0.04071 -0.265893,-0.08224 -0.233366,-0.072 -0.466996,-0.143045 -0.700807,-0.213592 -0.329006,-0.09952 -0.657474,-0.200789 -0.985987,-0.30192 -0.174898,-0.05373 -0.349909,-0.10709 -0.525042,-0.160036 -0.07947,-0.02421 -0.158935,-0.04842 -0.24081,-0.07336 -0.06985,-0.02113 -0.139709,-0.04223 -0.211678,-0.064 -0.446984,-0.152504 -0.446984,-0.152504 -0.558259,-0.339412 -0.01853,-0.05133 -0.03706,-0.10263 -0.05617,-0.155501 -0.02191,-0.05827 -0.04381,-0.116539 -0.06637,-0.176573 -0.02291,-0.0633 -0.04583,-0.126599 -0.06942,-0.191818 -0.643074,-1.678863 -1.448355,-3.154858 -2.616583,-4.525853 -0.08907,-0.105302 -0.177032,-0.211546 -0.263507,-0.318983 -0.03519,-0.04244 -0.07037,-0.08486 -0.106621,-0.128577 -0.181158,-0.354503 -0.04294,-0.755068 0.05432,-1.118461 0.02744,-0.105178 0.05472,-0.210403 0.08187,-0.31566 0.01421,-0.05499 0.02841,-0.109996 0.04304,-0.166661 0.11789,-0.468487 0.2192,-0.941025 0.322146,-1.412975 0.02688,-0.122694 0.05408,-0.245322 0.08155,-0.367885 0.04036,-0.180075 0.07986,-0.36032 0.119166,-0.540631 0.0124,-0.05462 0.02479,-0.109247 0.03757,-0.165527 0.08684,-0.365197 0.08684,-0.365197 2.6e-4,-0.716297 -0.125944,-0.121143 -0.125944,-0.121143 -0.289799,-0.224209 -0.06153,-0.04126 -0.123071,-0.08251 -0.186472,-0.125018 -0.06709,-0.04341 -0.134177,-0.08683 -0.203301,-0.131555 -0.06881,-0.04518 -0.137609,-0.09036 -0.208501,-0.136901 -0.739402,-0.478033 -1.506415,-0.909046 -2.292506,-1.305456 -0.07355,-0.03771 -0.07355,-0.03771 -0.148586,-0.07617 -0.201258,-0.09607 -0.346501,-0.146933 -0.57086,-0.135041 -0.178635,0.06721 -0.278639,0.132378 -0.417798,0.262064 -0.07523,0.06909 -0.07523,0.06909 -0.151978,0.139554 -0.06274,0.05921 -0.125479,0.118422 -0.19012,0.179428 -0.08799,0.0822 -0.176018,0.164347 -0.264085,0.246461 -0.146336,0.136526 -0.292605,0.273124 -0.438636,0.409977 -0.279651,0.261854 -0.561678,0.519491 -0.852318,0.76916 -0.267423,0.233598 -0.527169,0.475874 -0.78821,0.716555 -0.24371,0.214169 -0.39027,0.244785 -0.713956,0.241838 -0.343266,-0.02964 -0.676765,-0.108734 -1.012712,-0.183184 -1.467671,-0.299708 -2.977296,-0.134951 -4.438873,0.101412 -0.850427,0.129938 -0.850427,0.129938 -1.166714,-0.0601 -0.06417,-0.05645 -0.128339,-0.112891 -0.194452,-0.171048 -0.0698,-0.06083 -0.139589,-0.121665 -0.211499,-0.184341 -0.223736,-0.20757 -0.440798,-0.419792 -0.653568,-0.638543 -0.173994,-0.174723 -0.35904,-0.333303 -0.546084,-0.493788 -0.309578,-0.274043 -0.60901,-0.559127 -0.909293,-0.843289 -0.04633,-0.04361 -0.09267,-0.08722 -0.140403,-0.13215 -0.04156,-0.03931 -0.0831,-0.07862 -0.125921,-0.119131 -0.455639,-0.401369 -0.779994,-0.208564 -1.259517,0.02118 z"
   fill="#404040"
   id="path134"
   style="stroke-width:0.0739671" /><path
   d="m 24.234489,32.524762 c 0.182143,0.166202 0.355647,0.339373 0.529148,0.514627 0.05836,0.05674 0.116705,0.113465 0.176826,0.171916 0.766675,0.78946 1.302574,1.806167 1.598381,2.860731 0.02345,0.08286 0.04691,0.165716 0.07108,0.251082 0.432311,1.798656 0.128087,3.713923 -0.799191,5.309155 -0.326247,0.510086 -0.703751,0.955442 -1.121062,1.392661 -0.05849,0.0668 -0.05849,0.0668 -0.118174,0.134932 -1.107309,1.214924 -2.903899,1.877316 -4.516031,1.964169 -0.88678,0.02753 -1.694767,-0.05827 -2.540594,-0.323894 -0.08315,-0.02593 -0.166287,-0.05186 -0.251951,-0.07859 -1.097162,-0.383474 -1.973107,-1.022939 -2.780695,-1.844551 -0.05626,-0.05636 -0.112511,-0.112701 -0.170471,-0.17076 -1.255403,-1.331117 -1.825946,-3.220869 -1.773474,-5.023977 0.09305,-1.914879 0.882686,-3.530811 2.239813,-4.864776 0.05636,-0.05626 0.112701,-0.112511 0.170759,-0.170471 2.484256,-2.34295 6.733967,-2.352293 9.285639,-0.122254 z m -8.652584,1.197087 c -1.082325,1.046935 -1.759479,2.480391 -1.787054,3.993063 -0.0093,1.507709 0.35146,2.886245 1.353075,4.052581 0.03671,0.0472 0.07342,0.09439 0.111237,0.143023 0.828602,1.024275 2.206548,1.759221 3.513143,1.928055 1.802545,0.145824 3.408753,-0.259556 4.810456,-1.428778 1.029178,-0.931548 1.835001,-2.303026 1.933632,-3.714348 0.03816,-1.667599 -0.225242,-3.16926 -1.344498,-4.472585 -0.03671,-0.04719 -0.07342,-0.09439 -0.111237,-0.143021 -0.958957,-1.185411 -2.427809,-1.805179 -3.913441,-1.973958 -1.689264,-0.14857 -3.324159,0.48513 -4.565313,1.615968 z"
   fill="#404040"
   id="path136"
   style="stroke-width:0.0739671" /><path
   d="m 37.625645,0.07346908 c 0.188783,0.146643 0.355336,0.309267 0.522777,0.479591 0.07241,0.07159 0.07241,0.07159 0.146274,0.144625 0.160929,0.159524 0.320628,0.32022402 0.480356,0.48094902 0.116533,0.116022 0.233141,0.231967 0.349815,0.347848 0.319938,0.318192 0.638809,0.637435 0.957512,0.956864 0.344067,0.344485 0.689106,0.687994 1.034017,1.031633 0.675336,0.673174 1.349741,1.347274 2.023798,2.021729 0.547801,0.548103 1.095901,1.095908 1.644215,1.643498 0.07802,0.07792 0.15604,0.155837 0.236424,0.236118 0.158492,0.158287 0.316986,0.316575 0.475479,0.474861 1.064145,1.062823 2.127962,2.1259749 3.191104,3.1897999 0.04156,0.04159 0.08312,0.08318 0.125944,0.126025 0.210644,0.21078 0.421285,0.421561 0.631924,0.632352 0.04183,0.04186 0.08367,0.08372 0.126766,0.126853 0.0846,0.08466 0.169192,0.169307 0.253788,0.253962 1.316638,1.317549 2.634402,2.633965 3.95306,3.949494 1.481859,1.478344 2.962865,2.957527 4.442628,4.437973 0.783412,0.783738 1.567194,1.567094 2.351967,2.349468 0.667971,0.665953 1.335045,1.332786 2.000978,2.000777 0.339833,0.340832 0.680066,0.681242 1.021411,1.020559 0.31245,0.310617 0.623702,0.622379 0.934037,0.935099 0.112486,0.112939 0.225403,0.22545 0.338791,0.337478 1.174238,1.161173 1.174238,1.161173 1.185651,1.965183 -0.02159,0.4968 -0.192868,0.83856 -0.553832,1.18725 -0.370748,0.32371 -0.642212,0.40169 -1.124967,0.41332 -0.08532,0.004 -0.170633,0.006 -0.258536,0.01 -0.71753,-0.0954 -1.153833,-0.63938 -1.628088,-1.13948 -0.124852,-0.1313 -0.25081,-0.26145 -0.377168,-0.3913 -0.35884,-0.3689 -0.716791,-0.73858 -1.071122,-1.111811 -0.217638,-0.229074 -0.437504,-0.455804 -0.658973,-0.681183 -0.08361,-0.08597 -0.166366,-0.172796 -0.248202,-0.260465 -0.422182,-0.490731 -0.422182,-0.490731 -0.996311,-0.71137 -0.198748,0.04247 -0.367687,0.103617 -0.552818,0.186529 -0.07795,0.01997 -0.15591,0.04 -0.236225,0.06062 -0.06588,0.01827 -0.131764,0.03654 -0.199641,0.05539 -6.418673,1.74908 -12.943357,0.839411 -18.730975,-2.410023 -0.590207,-0.338113 -1.153705,-0.704891 -1.707005,-1.100105 -0.09395,-0.06659 -0.09395,-0.06659 -0.189801,-0.134532 -0.942681,-0.671128 -1.840009,-1.376964 -2.695202,-2.156502 -0.08755,-0.0797 -0.08755,-0.0797 -0.176874,-0.161006 -0.182144,-0.166575 -0.363462,-0.333995 -0.544377,-0.501909 -0.05488,-0.05075 -0.109749,-0.101485 -0.166288,-0.153776 -0.33151,-0.311404 -0.636384,-0.63694 -0.932575,-0.982067 -0.155753,-0.181048 -0.318536,-0.35486 -0.481524,-0.529394 -0.839014,-0.930652 -1.604317,-1.962624 -2.280426,-3.017586 -0.04025,-0.06169 -0.0805,-0.123384 -0.121976,-0.186946 -0.36155,-0.65782 -0.315712,-1.542173 -0.167386,-2.262192 0.224716,-0.632727 0.656119,-1.17384 1.05304,-1.708662 0.06585,-0.08937 0.131694,-0.178729 0.199537,-0.270801 0.741882,-0.984745 1.541215,-1.9293369 2.430907,-2.7839099 0.220321,-0.218865 0.438838,-0.439212 0.655622,-0.661587 0.826241,-0.84501 1.732233,-1.561178 2.674921,-2.271953 0.05948,-0.04502 0.118966,-0.09003 0.180251,-0.136414 0.05316,-0.04002 0.106318,-0.08004 0.161088,-0.121273 0.144182,-0.116192 0.271244,-0.240848 0.401063,-0.372622 -0.07578,-0.07356 -0.151561,-0.147122 -0.229638,-0.22291 -0.282413,-0.2747 -0.563391,-0.550829 -0.843973,-0.8274 -0.121344,-0.119218 -0.243068,-0.238053 -0.365182,-0.356482 -0.176056,-0.170876 -0.350676,-0.343115 -0.52509,-0.515664 -0.05437,-0.05218 -0.108736,-0.104356 -0.164752,-0.158116 -0.402854,-0.4026 -0.643626,-0.790426 -0.689745,-1.374874 0.06395,-0.53950202 0.163106,-0.96132402 0.585022,-1.33908702 0.707568,-0.532953 1.412266,-0.490753 2.148505,-0.04209 z M 43.310798,10.510391 c -0.949046,1.931987 -1.060638,4.322547 -0.40272,6.364312 0.525031,1.532149 1.370676,3.004578 2.608899,4.072611 0.07416,0.06399 0.14832,0.127976 0.224728,0.1939 1.12461,0.932156 2.433804,1.57574 3.848218,1.927422 0.07886,0.02068 0.157727,0.04135 0.238981,0.06265 1.799395,0.385029 3.674817,0.09494 5.361319,-0.571763 0,-0.618666 -0.907777,-1.312514 -1.325435,-1.739336 -0.557793,-0.546522 -0.998753,-0.937707 -1.816675,-0.949379 -0.348958,0.02755 -0.694064,0.06768 -1.040259,0.119301 -1.091221,0.113039 -2.316522,-0.547944 -3.145486,-1.216157 -1.059138,-0.905588 -1.879286,-2.186818 -2.084493,-3.585825 -0.0078,-0.220583 0.02593,-0.420599 0.06227,-0.638262 0.136201,-0.945305 0.136201,-0.945305 -0.172316,-1.825876 -0.636108,-0.834098 -1.459365,-1.555311 -2.27218,-2.213594 -0.028,0 -0.056,0 -0.08485,0 z"
   fill="#000000"
   id="path858"
   style="stroke-width:0.0848534" /><path
   d="m 57.396402,1.2614121 c 0.07469,0.01824 0.149387,0.03648 0.226344,0.05527 4.170538,1.044 8.240936,3.373454 11.265193,6.43091 0.151033,0.149932 0.308994,0.288172 0.47274,0.424038 0.284692,0.245969 0.530246,0.507511 0.772957,0.794503 0.178523,0.207662 0.365528,0.405839 0.552872,0.605571 0.563445,0.6183339 1.062579,1.2844519 1.559175,1.9569259 0.03894,0.05241 0.07788,0.104812 0.117997,0.158807 0.763985,1.035235 1.11069,1.856112 0.98509,3.150462 -0.157278,0.744733 -0.657818,1.351646 -1.103087,1.951622 -0.09877,0.134044 -0.09877,0.134044 -0.199539,0.270797 -0.38826,0.51536 -0.794977,1.011948 -1.216446,1.500506 -0.04433,0.05146 -0.08865,0.102906 -0.134325,0.155907 -0.277282,0.31763 -0.566336,0.618796 -0.868126,0.913248 -0.139986,0.137398 -0.139986,0.137398 -0.291559,0.341531 -0.196675,0.23839 -0.412107,0.425536 -0.647004,0.625457 -0.196673,0.171773 -0.386037,0.34982 -0.575203,0.52977 -0.683906,0.647191 -1.422424,1.210836 -2.177217,1.772201 -0.127654,0.09562 -0.255266,0.191299 -0.382834,0.287039 -0.05674,0.04259 -0.113468,0.08513 -0.171922,0.128981 -0.04094,0.03072 -0.08189,0.06144 -0.124069,0.0931 -0.351735,-0.13929 -0.590993,-0.394398 -0.854434,-0.656037 -0.05067,-0.04969 -0.101343,-0.09938 -0.153547,-0.15058 -0.167094,-0.16419 -0.333514,-0.329032 -0.499817,-0.49402 -0.08535,-0.08447 -0.08535,-0.08447 -0.172423,-0.170652 -0.300786,-0.297746 -0.601047,-0.59601 -0.900897,-0.894691 -0.310121,-0.308714 -0.62198,-0.615606 -0.93427,-0.922129 -0.239674,-0.235882 -0.47802,-0.473068 -0.716023,-0.710636 -0.114433,-0.113761 -0.229368,-0.227024 -0.344801,-0.339775 -0.161132,-0.157629 -0.320296,-0.317014 -0.479109,-0.476974 -0.04817,-0.04629 -0.09634,-0.0926 -0.145976,-0.140312 -0.130136,-0.133352 -0.130136,-0.133352 -0.314149,-0.389934 0.0077,-0.268271 0.0077,-0.268271 0.08485,-0.509122 0.03139,-0.102595 0.06278,-0.205196 0.09513,-0.310905 0.03719,-0.112046 0.07443,-0.224081 0.111701,-0.336098 0.759096,-2.396515 0.437139,-4.766028 -0.615184,-7.0109829 -0.28528,-0.548274 -0.644906,-1.027726 -1.034146,-1.506142 -0.05841,-0.07252 -0.116818,-0.145038 -0.176999,-0.219755 -1.414846,-1.664679 -3.577542,-2.82091 -5.762713,-3.004658 -1.532031,-0.0949 -2.970565,0.0099 -4.39015,0.624796 -0.244964,0.06896 -0.372495,0.04259 -0.616179,-0.03083 -0.192759,-0.150801 -0.192759,-0.150801 -0.390891,-0.349667 -0.07472,-0.07419 -0.149432,-0.148388 -0.226413,-0.224831 -0.08031,-0.08148 -0.16059,-0.162992 -0.240838,-0.244533 -0.08304,-0.08324 -0.16614,-0.166419 -0.249302,-0.249537 -0.173765,-0.174032 -0.346947,-0.348616 -0.519701,-0.523651 -0.22179,-0.224682 -0.444689,-0.448222 -0.667995,-0.671398 -0.171474,-0.171521 -0.342503,-0.34348 -0.513384,-0.515592 -0.08208,-0.082617 -0.164257,-0.165132 -0.246543,-0.247542 -0.114586,-0.114954 -0.228546,-0.230531 -0.342473,-0.346139 -0.06505,-0.065693 -0.130091,-0.131386 -0.19711,-0.19907 -0.138884,-0.161576 -0.138884,-0.161576 -0.138884,-0.331282 4.387776,-1.44134902 8.991123,-1.70186302 13.491633,-0.593971 z"
   fill="#000000"
   id="path860"
   style="stroke-width:0.0848534" /><path
   d="m 55.10537,9.2375961 c 1.235415,0.9243289 2.10609,2.2386479 2.421627,3.7550789 0.09586,0.779032 0.149124,1.672295 -0.04574,2.439193 -0.258924,-0.115779 -0.43767,-0.246673 -0.637936,-0.44668 -0.08638,-0.08566 -0.08638,-0.08566 -0.174497,-0.173047 -0.06226,-0.0626 -0.124511,-0.125199 -0.188651,-0.189693 -0.06626,-0.06596 -0.132519,-0.131925 -0.200786,-0.19988 -0.218968,-0.218223 -0.437309,-0.437061 -0.655616,-0.65594 -0.151684,-0.151572 -0.303394,-0.303116 -0.455127,-0.454634 -0.31783,-0.317582 -0.635356,-0.635458 -0.952655,-0.953561 -0.367161,-0.368086 -0.734932,-0.735556 -1.103022,-1.102715 -0.353957,-0.353092 -0.707433,-0.706661 -1.060709,-1.060434 -0.150498,-0.150612 -0.301125,-0.3010969 -0.451876,-0.4514549 -0.210088,-0.209659 -0.419627,-0.419851 -0.629027,-0.630198 -0.06294,-0.0626 -0.125884,-0.125195 -0.190733,-0.189692 -0.05662,-0.05711 -0.113254,-0.11421 -0.171597,-0.173046 -0.04962,-0.04968 -0.09924,-0.09936 -0.150358,-0.150552 C 50.3536,8.4739181 50.3536,8.4739181 50.3536,8.3042121 c 1.610483,-0.40344 3.400516,0.01065 4.75177,0.933384 z"
   fill="#000000"
   id="path862"
   style="stroke-width:0.0848534" /></g>
</svg>
